<svg width="24" height="24" viewBox="0 0 24 24" fill="none" xmlns="http://www.w3.org/2000/svg">
<path fill-rule="evenodd" clip-rule="evenodd" d="M7.26571 15.2701L6.4931 18.3523L9.29003 17.2094L17.5308 7.11706L15.4521 5.24433L7.26571 15.2701ZM6.07526 14.6726L5.08803 18.611C4.88878 19.4059 5.67773 20.0899 6.4363 19.7799L10.0879 18.2877L19.3209 6.98009L15.3083 3.365L6.07526 14.6726Z" fill="#737691"/>
<path fill-rule="evenodd" clip-rule="evenodd" d="M16.6008 9.49963L13.1024 6.6431L13.9247 5.63615L17.423 8.49268L16.6008 9.49963Z" fill="#737691"/>
<path fill-rule="evenodd" clip-rule="evenodd" d="M13.35 19.9996C13.35 19.6406 13.641 19.3496 14 19.3496H21C21.359 19.3496 21.65 19.6406 21.65 19.9996C21.65 20.3586 21.359 20.6496 21 20.6496H14C13.641 20.6496 13.35 20.3586 13.35 19.9996Z" fill="#737691"/>
</svg>
