<svg width="16" height="16" viewBox="0 0 16 16" fill="none" xmlns="http://www.w3.org/2000/svg">
<path fill-rule="evenodd" clip-rule="evenodd" d="M10 3.66683C9.63181 3.66683 9.33333 3.36835 9.33333 3.00016C9.33333 2.63197 9.63181 2.3335 10 2.3335H13.3333C13.7015 2.3335 14 2.63197 14 3.00016V6.3335C14 6.70169 13.7015 7.00016 13.3333 7.00016C12.9651 7.00016 12.6667 6.70169 12.6667 6.3335V4.60964L7.80474 9.47157C7.54439 9.73192 7.12228 9.73192 6.86193 9.47157C6.60158 9.21122 6.60158 8.78911 6.86193 8.52876L11.7239 3.66683H10ZM2.58579 4.25262C2.96086 3.87754 3.46957 3.66683 4 3.66683H8C8.36819 3.66683 8.66667 3.96531 8.66667 4.3335C8.66667 4.70169 8.36819 5.00016 8 5.00016H4C3.82319 5.00016 3.65362 5.0704 3.5286 5.19543C3.40357 5.32045 3.33333 5.49002 3.33333 5.66683V12.3335C3.33333 12.5103 3.40357 12.6799 3.5286 12.8049C3.65362 12.9299 3.82319 13.0002 4 13.0002H10.6667C10.8435 13.0002 11.013 12.9299 11.1381 12.8049C11.2631 12.6799 11.3333 12.5103 11.3333 12.3335V8.3335C11.3333 7.96531 11.6318 7.66683 12 7.66683C12.3682 7.66683 12.6667 7.96531 12.6667 8.3335V12.3335C12.6667 12.8639 12.456 13.3726 12.0809 13.7477C11.7058 14.1228 11.1971 14.3335 10.6667 14.3335H4C3.46957 14.3335 2.96086 14.1228 2.58579 13.7477C2.21071 13.3726 2 12.8639 2 12.3335V5.66683C2 5.1364 2.21071 4.62769 2.58579 4.25262Z" fill="#7187A8"/>
</svg>
