<svg width="16" height="16" viewBox="0 0 16 16" fill="none" xmlns="http://www.w3.org/2000/svg">
  <path d="M10.6667 8C12.1394 8 13.3267 6.80667 13.3267 5.33333C13.3267 3.86 12.1394 2.66667 10.6667 2.66667C9.194 2.66667 8 3.86 8 5.33333C8 6.80667 9.194 8 10.6667 8ZM5.33333 8C6.806 8 7.99333 6.80667 7.99333 5.33333C7.99333 3.86 6.806 2.66667 5.33333 2.66667C3.86067 2.66667 2.66667 3.86 2.66667 5.33333C2.66667 6.80667 3.86067 8 5.33333 8ZM5.33333 9.33333C3.556 9.33333 0 10.226 0 12V13.3333H10.6667V12C10.6667 10.226 7.11067 9.33333 5.33333 9.33333ZM10.6667 9.33333C10.4433 9.33333 10.1867 9.34667 9.91333 9.36667C10.7867 9.99333 11.3333 10.8467 11.3333 12V13.3333H16V12C16 10.226 12.444 9.33333 10.6667 9.33333Z" fill="currentColor"/>
</svg>
