<svg width="50" height="61" viewBox="0 0 50 61" fill="none" xmlns="http://www.w3.org/2000/svg">
<rect x="7" width="36" height="36" rx="4" fill="#F46539"/>
<path d="M21.1175 10.2711C22.437 10.2711 23.5072 11.3568 23.5072 12.696V27.5562C23.5072 27.8861 23.2394 28.1539 22.9096 28.1539C22.5797 28.1539 22.3119 27.8861 22.3119 27.5562V12.696C22.3119 12.0264 21.7772 11.4835 21.1175 11.4835H15.4519C15.1173 11.4833 14.8462 11.2115 14.8462 10.8768C14.8463 10.5423 15.1174 10.2713 15.4519 10.2711H21.1175Z" fill="white"/>
<path d="M34.5481 7.84619C34.8825 7.84642 35.1536 8.11751 35.1539 8.45196C35.1539 8.78661 34.8827 9.0584 34.5481 9.05863H31.5697C28.2712 9.05886 25.5977 11.773 25.5977 15.1208V27.5562C25.5977 27.8861 25.3299 28.1539 25 28.1539C24.6701 28.1539 24.4024 27.8861 24.4024 27.5562V15.1208C24.4024 11.1034 27.6115 7.84642 31.5697 7.84619H34.5481Z" fill="white"/>
<path d="M34.5481 10.2711C34.8826 10.2713 35.1537 10.5423 35.1539 10.8768C35.1539 11.2115 34.8827 11.4833 34.5481 11.4835H31.869C29.56 11.4835 27.6882 13.3831 27.6881 15.7266V27.5562C27.6881 27.8861 27.4203 28.1539 27.0905 28.1539C26.7606 28.1539 26.4928 27.8861 26.4928 27.5562V15.7266C26.4929 12.7135 28.9002 10.2711 31.869 10.2711H34.5481Z" fill="white"/>
<path d="M24.8504 7.84619C25.1801 7.84619 25.4478 8.11736 25.448 8.45196C25.448 8.78676 25.1802 9.05863 24.8504 9.05863H15.4519C15.1173 9.0584 14.8462 8.78661 14.8462 8.45196C14.8464 8.11751 15.1175 7.84642 15.4519 7.84619H24.8504Z" fill="white"/>
<path fill-rule="evenodd" clip-rule="evenodd" d="M23.9204 48.1699C24.5103 48.1699 25.0422 48.3205 25.5161 48.6221C25.9934 48.9204 26.3715 49.3626 26.6499 49.9492C26.9316 50.5325 27.0727 51.2484 27.0728 52.0967C27.0728 52.9351 26.9347 53.6478 26.6597 54.2344C26.3846 54.8209 26.0105 55.2689 25.5366 55.5771C25.0627 55.8854 24.5252 56.0391 23.9253 56.0391C23.4879 56.039 23.1247 55.9661 22.8364 55.8203C22.5484 55.6746 22.3167 55.4992 22.1411 55.2939C21.9688 55.0851 21.8339 54.8878 21.7378 54.7021H21.6636V58.7686H19.8638V48.2686H21.6333V49.5312H21.7378C21.8305 49.3458 21.9616 49.149 22.1304 48.9404C22.2994 48.7283 22.5286 48.5476 22.8169 48.3984C23.1052 48.246 23.473 48.1699 23.9204 48.1699ZM23.4233 49.6465C23.0389 49.6465 22.7123 49.747 22.4438 49.9492C22.1754 50.1514 21.9717 50.4352 21.8325 50.7998C21.6967 51.1643 21.6284 51.5933 21.6284 52.0869C21.6284 52.5808 21.6982 53.0136 21.8374 53.3848C21.9799 53.7559 22.1836 54.0461 22.4487 54.2549C22.7172 54.4604 23.0422 54.5625 23.4233 54.5625C23.8209 54.5625 24.154 54.4571 24.4224 54.2451C24.6907 54.0298 24.8929 53.7362 25.0288 53.3652C25.168 52.9907 25.2378 52.5642 25.2378 52.0869C25.2378 51.613 25.1696 51.1921 25.0337 50.8242C24.8978 50.4564 24.6957 50.1677 24.4272 49.959C24.1588 49.7504 23.8242 49.6465 23.4233 49.6465Z" fill="#F46539"/>
<path fill-rule="evenodd" clip-rule="evenodd" d="M45.0024 48.1699C45.5924 48.1699 46.1242 48.3205 46.5981 48.6221C47.0754 48.9204 47.4535 49.3626 47.7319 49.9492C48.0136 50.5325 48.1547 51.2484 48.1548 52.0967C48.1548 52.9351 48.0167 53.6478 47.7417 54.2344C47.4667 54.8209 47.0925 55.2689 46.6187 55.5771C46.1447 55.8854 45.6072 56.0391 45.0073 56.0391C44.5699 56.039 44.2068 55.9661 43.9185 55.8203C43.6304 55.6746 43.3987 55.4992 43.2231 55.2939C43.0508 55.0851 42.9159 54.8878 42.8198 54.7021H42.7456V58.7686H40.9458V48.2686H42.7153V49.5312H42.8198C42.9126 49.3458 43.0436 49.149 43.2124 48.9404C43.3814 48.7283 43.6106 48.5476 43.8989 48.3984C44.1873 48.246 44.555 48.1699 45.0024 48.1699ZM44.5054 49.6465C44.1209 49.6465 43.7943 49.747 43.5259 49.9492C43.2574 50.1514 43.0538 50.4352 42.9146 50.7998C42.7787 51.1643 42.7105 51.5933 42.7104 52.0869C42.7104 52.5808 42.7802 53.0136 42.9194 53.3848C43.0619 53.7559 43.2656 54.0461 43.5308 54.2549C43.7992 54.4604 44.1242 54.5625 44.5054 54.5625C44.9029 54.5625 45.236 54.4571 45.5044 54.2451C45.7727 54.0298 45.975 53.7362 46.1108 53.3652C46.25 52.9907 46.3198 52.5642 46.3198 52.0869C46.3198 51.613 46.2516 51.1921 46.1157 50.8242C45.9798 50.4564 45.7777 50.1677 45.5093 49.959C45.2409 49.7504 44.9062 49.6465 44.5054 49.6465Z" fill="#F46539"/>
<path d="M9.96924 47.2695H6.82178V55.9053H4.99268V47.2695H1.84521V45.7236H9.96924V47.2695Z" fill="#F46539"/>
<path d="M14.7046 48.1748C14.8304 48.1814 14.9352 48.1924 15.0181 48.209V49.8652C14.9418 49.8387 14.8205 49.8148 14.6548 49.7949C14.4924 49.7717 14.3346 49.7607 14.1821 49.7607C13.8541 49.7608 13.5591 49.8321 13.2974 49.9746C13.039 50.1138 12.8351 50.3072 12.686 50.5557C12.5369 50.8042 12.4624 51.0912 12.4624 51.416V55.9053H10.6626V48.2686H12.4077V49.542H12.4868C12.626 49.1013 12.8647 48.7611 13.2026 48.5225C13.544 48.2805 13.9341 48.1592 14.3716 48.1592C14.4709 48.1592 14.5821 48.1649 14.7046 48.1748Z" fill="#F46539"/>
<path d="M18.0132 55.9053H16.2134V48.2686H18.0132V55.9053Z" fill="#F46539"/>
<path d="M35.8091 47.2695H32.6616V55.9053H30.8325V47.2695H27.6851V45.7236H35.8091V47.2695Z" fill="#F46539"/>
<path d="M39.0952 55.9053H37.2954V48.2686H39.0952V55.9053Z" fill="#F46539"/>
<path d="M17.1177 45.2314C17.406 45.2314 17.6518 45.3273 17.854 45.5195C18.0595 45.7085 18.1626 45.9392 18.1626 46.2109C18.1625 46.4792 18.0593 46.7092 17.854 46.9014C17.6518 47.0903 17.406 47.1855 17.1177 47.1855C16.8328 47.1854 16.5877 47.0902 16.3823 46.9014C16.177 46.7092 16.0738 46.4792 16.0737 46.2109C16.0737 45.9392 16.1768 45.7085 16.3823 45.5195C16.5877 45.3274 16.8328 45.2315 17.1177 45.2314Z" fill="#F46539"/>
<path d="M38.1997 45.2314C38.4881 45.2314 38.7339 45.3273 38.936 45.5195C39.1415 45.7085 39.2446 45.9392 39.2446 46.2109C39.2446 46.4792 39.1413 46.7092 38.936 46.9014C38.7339 47.0903 38.4881 47.1855 38.1997 47.1855C37.9149 47.1854 37.6697 47.0902 37.4644 46.9014C37.259 46.7092 37.1558 46.4792 37.1558 46.2109C37.1558 45.9392 37.2589 45.7085 37.4644 45.5195C37.6697 45.3274 37.9149 45.2315 38.1997 45.2314Z" fill="#F46539"/>
</svg>
