<svg width="83" height="83" viewBox="0 0 83 83" fill="none" xmlns="http://www.w3.org/2000/svg">
<path fill-rule="evenodd" clip-rule="evenodd" d="M69.1667 5.99444H13.8333C9.50404 5.99444 5.99444 9.50404 5.99444 13.8333V69.1667C5.99444 73.496 9.50404 77.0056 13.8333 77.0056H69.1667C73.496 77.0056 77.0056 73.496 77.0056 69.1667V13.8333C77.0056 9.50404 73.496 5.99444 69.1667 5.99444ZM13.8333 0C6.19339 0 0 6.1934 0 13.8333V69.1667C0 76.8066 6.1934 83 13.8333 83H69.1667C76.8066 83 83 76.8066 83 69.1667V13.8333C83 6.19339 76.8066 0 69.1667 0H13.8333Z" fill="#FF4F18"/>
<path fill-rule="evenodd" clip-rule="evenodd" d="M54.4688 35.5056C58.3206 35.5056 61.4431 32.3831 61.4431 28.5312C61.4431 24.6794 58.3206 21.5569 54.4688 21.5569C50.6169 21.5569 47.4944 24.6794 47.4944 28.5312C47.4944 32.3831 50.6169 35.5056 54.4688 35.5056ZM54.4688 41.5C61.6312 41.5 67.4375 35.6937 67.4375 28.5312C67.4375 21.3688 61.6312 15.5625 54.4688 15.5625C47.3063 15.5625 41.5 21.3688 41.5 28.5312C41.5 35.6937 47.3063 41.5 54.4688 41.5Z" fill="#FF4F18"/>
<path fill-rule="evenodd" clip-rule="evenodd" d="M25.8009 37.3979L46.9342 55.8895L62.4495 45.546L79.7313 59.9475C81.0029 61.0072 81.1747 62.8971 80.115 64.1688C79.0553 65.4404 77.1654 65.6122 75.8937 64.5525L62.0505 53.0165L46.4408 63.423L26.0741 45.6021L7.30686 64.3694C6.13637 65.5398 4.23863 65.5398 3.06814 64.3694C1.89766 63.1989 1.89766 61.3011 3.06814 60.1306L25.8009 37.3979Z" fill="#FF4F18"/>
</svg>