<svg width="20" height="20" viewBox="0 0 20 20" fill="none" xmlns="http://www.w3.org/2000/svg">
<g id="material-symbols-light:language">
<path id="Vector" d="M10 17.5C8.96778 17.5 7.99556 17.3028 7.08334 16.9083C6.17112 16.5133 5.37667 15.9772 4.7 15.3C4.02334 14.6228 3.48723 13.8283 3.09167 12.9167C2.69612 12.005 2.49889 11.0328 2.5 10C2.5 8.96444 2.69723 7.99139 3.09167 7.08083C3.48667 6.16972 4.02278 5.37611 4.7 4.7C5.37723 4.02389 6.17167 3.48778 7.08334 3.09167C7.99556 2.69722 8.96778 2.5 10 2.5C11.0356 2.5 12.0086 2.69722 12.9192 3.09167C13.8303 3.48667 14.6242 4.02278 15.3008 4.7C15.9775 5.37722 16.5133 6.17083 16.9083 7.08083C17.3028 7.99194 17.5 8.965 17.5 10C17.5 11.0322 17.3028 12.0044 16.9083 12.9167C16.5133 13.8289 15.9772 14.6233 15.3 15.3C14.6228 15.9767 13.8292 16.5128 12.9192 16.9083C12.0092 17.3039 11.0361 17.5011 10 17.5ZM10 16.6733C10.4889 16.045 10.8922 15.4281 11.21 14.8225C11.5272 14.2169 11.7853 13.5392 11.9842 12.7892H8.01584C8.23639 13.5814 8.49973 14.2803 8.80584 14.8858C9.1125 15.4914 9.51056 16.0872 10 16.6733ZM8.93917 16.5483C8.55028 16.09 8.19528 15.5233 7.87417 14.8483C7.55306 14.1739 7.31417 13.4872 7.1575 12.7883H3.96167C4.43945 13.8244 5.11639 14.6744 5.9925 15.3383C6.86917 16.0017 7.85139 16.405 8.93917 16.5483ZM11.0608 16.5483C12.1486 16.405 13.1308 16.0017 14.0075 15.3383C14.8836 14.6744 15.5606 13.8244 16.0383 12.7883H12.8433C12.6322 13.4978 12.3664 14.1897 12.0458 14.8642C11.7247 15.5392 11.3964 16.1011 11.0608 16.5483ZM3.62167 11.9558H6.98417C6.92084 11.6136 6.87639 11.2803 6.85084 10.9558C6.82417 10.6319 6.81084 10.3133 6.81084 10C6.81084 9.68667 6.82389 9.36806 6.85 9.04417C6.87612 8.72028 6.92056 8.38694 6.98334 8.04417H3.6225C3.53195 8.33306 3.46112 8.64778 3.41 8.98833C3.35889 9.32833 3.33334 9.66556 3.33334 10C3.33334 10.3344 3.35862 10.6719 3.40917 11.0125C3.45973 11.3531 3.53056 11.6672 3.62167 11.955M7.8175 11.955H12.1825C12.2458 11.6133 12.2903 11.2856 12.3158 10.9717C12.3425 10.6583 12.3558 10.3344 12.3558 10C12.3558 9.66556 12.3428 9.34167 12.3167 9.02833C12.2906 8.715 12.2461 8.38722 12.1833 8.045H7.81667C7.75389 8.38667 7.70945 8.71444 7.68334 9.02833C7.65723 9.34167 7.64417 9.66556 7.64417 10C7.64417 10.3344 7.65723 10.6583 7.68334 10.9717C7.70945 11.285 7.75473 11.6128 7.8175 11.955ZM13.0167 11.955H16.3783C16.4689 11.6667 16.5397 11.3525 16.5908 11.0125C16.6414 10.6719 16.6667 10.3344 16.6667 10C16.6667 9.66556 16.6414 9.32806 16.5908 8.9875C16.5403 8.64694 16.4694 8.33278 16.3783 8.045H13.0158C13.0792 8.38667 13.1236 8.71972 13.1492 9.04417C13.1758 9.36861 13.1892 9.68722 13.1892 10C13.1892 10.3128 13.1761 10.6314 13.15 10.9558C13.1239 11.2803 13.0794 11.6136 13.0167 11.9558M12.8433 7.21167H16.0383C15.55 6.15389 14.8811 5.30389 14.0317 4.66167C13.1822 4.01944 12.1919 3.61083 11.0608 3.43583C11.4497 3.9475 11.7994 4.53278 12.11 5.19167C12.4206 5.85 12.665 6.52333 12.8433 7.21167ZM8.01584 7.21167H11.9842C11.7642 6.42944 11.4928 5.72222 11.17 5.09C10.8472 4.45778 10.4572 3.87 10 3.32667C9.54278 3.86944 9.15278 4.45722 8.83 5.09C8.50723 5.72278 8.23528 6.43 8.01584 7.21167ZM3.9625 7.21167H7.1575C7.33584 6.52389 7.58028 5.85056 7.89084 5.19167C8.20139 4.53278 8.55112 3.9475 8.94 3.43583C7.79889 3.61139 6.80612 4.0225 5.96167 4.66917C5.11723 5.31694 4.45056 6.16417 3.96167 7.21083" fill="#1C1E22"/>
</g>
</svg>
