<svg width="16" height="16" viewBox="0 0 16 16" fill="none" xmlns="http://www.w3.org/2000/svg">
<g id="list">
<path id="Vector" fill-rule="evenodd" clip-rule="evenodd" d="M2.66667 3C3.03486 3 3.33333 3.29848 3.33333 3.66667V3.67333C3.33333 4.04152 3.03486 4.34 2.66667 4.34C2.29848 4.34 2 4.04152 2 3.67333V3.66667C2 3.29848 2.29848 3 2.66667 3ZM4.66667 3.66667C4.66667 3.29848 4.96514 3 5.33333 3H12.6667C13.0349 3 13.3333 3.29848 13.3333 3.66667C13.3333 4.03486 13.0349 4.33333 12.6667 4.33333H5.33333C4.96514 4.33333 4.66667 4.03486 4.66667 3.66667ZM2.66667 7C3.03486 7 3.33333 7.29848 3.33333 7.66667V7.67333C3.33333 8.04152 3.03486 8.34 2.66667 8.34C2.29848 8.34 2 8.04152 2 7.67333V7.66667C2 7.29848 2.29848 7 2.66667 7ZM4.66667 7.66667C4.66667 7.29848 4.96514 7 5.33333 7H12.6667C13.0349 7 13.3333 7.29848 13.3333 7.66667C13.3333 8.03486 13.0349 8.33333 12.6667 8.33333H5.33333C4.96514 8.33333 4.66667 8.03486 4.66667 7.66667ZM2.66667 11C3.03486 11 3.33333 11.2985 3.33333 11.6667V11.6733C3.33333 12.0415 3.03486 12.34 2.66667 12.34C2.29848 12.34 2 12.0415 2 11.6733V11.6667C2 11.2985 2.29848 11 2.66667 11ZM4.66667 11.6667C4.66667 11.2985 4.96514 11 5.33333 11H12.6667C13.0349 11 13.3333 11.2985 13.3333 11.6667C13.3333 12.0349 13.0349 12.3333 12.6667 12.3333H5.33333C4.96514 12.3333 4.66667 12.0349 4.66667 11.6667Z" fill="#FF6700"/>
</g>
</svg>
