<svg width="16" height="18" viewBox="0 0 16 18" fill="none" xmlns="http://www.w3.org/2000/svg">
<path fill-rule="evenodd" clip-rule="evenodd" d="M8 0.666504C9.98912 0.666504 11.8968 1.45668 13.3033 2.8632C14.7098 4.26973 15.5 6.17738 15.5 8.1665C15.5 10.7282 14.1033 12.8248 12.6317 14.329C11.8964 15.0724 11.0941 15.7464 10.235 16.3423L9.88 16.584L9.71333 16.6948L9.39917 16.8948L9.11917 17.0657L8.7725 17.2673C8.5372 17.4016 8.27094 17.4723 8 17.4723C7.72906 17.4723 7.4628 17.4016 7.2275 17.2673L6.88083 17.0657L6.4475 16.799L6.2875 16.6948L5.94583 16.4673C5.01903 15.8403 4.15575 15.1241 3.36833 14.329C1.89667 12.824 0.5 10.7282 0.5 8.1665C0.5 6.17738 1.29018 4.26973 2.6967 2.8632C4.10322 1.45668 6.01088 0.666504 8 0.666504ZM8 2.33317C6.4529 2.33317 4.96917 2.94775 3.87521 4.04171C2.78125 5.13568 2.16667 6.61941 2.16667 8.1665C2.16667 10.1015 3.22667 11.7998 4.55917 13.1632C5.13211 13.7432 5.75138 14.2755 6.41083 14.7548L6.7925 15.0265C6.91583 15.1126 7.03444 15.1926 7.14833 15.2665L7.47333 15.4748L7.75917 15.649L8 15.7898L8.37917 15.5657L8.685 15.374C8.84778 15.2707 9.02194 15.1548 9.2075 15.0265L9.58917 14.7548C10.2486 14.2755 10.8679 13.7432 11.4408 13.1632C12.7733 11.8007 13.8333 10.1015 13.8333 8.1665C13.8333 6.61941 13.2188 5.13568 12.1248 4.04171C11.0308 2.94775 9.5471 2.33317 8 2.33317ZM8 4.83317C8.88406 4.83317 9.7319 5.18436 10.357 5.80948C10.9821 6.4346 11.3333 7.28245 11.3333 8.1665C11.3333 9.05056 10.9821 9.89841 10.357 10.5235C9.7319 11.1486 8.88406 11.4998 8 11.4998C7.11594 11.4998 6.2681 11.1486 5.64298 10.5235C5.01786 9.89841 4.66667 9.05056 4.66667 8.1665C4.66667 7.28245 5.01786 6.4346 5.64298 5.80948C6.2681 5.18436 7.11594 4.83317 8 4.83317ZM8 6.49984C7.55797 6.49984 7.13405 6.67543 6.82149 6.98799C6.50893 7.30055 6.33333 7.72448 6.33333 8.1665C6.33333 8.60853 6.50893 9.03245 6.82149 9.34502C7.13405 9.65758 7.55797 9.83317 8 9.83317C8.44203 9.83317 8.86595 9.65758 9.17851 9.34502C9.49107 9.03245 9.66667 8.60853 9.66667 8.1665C9.66667 7.72448 9.49107 7.30055 9.17851 6.98799C8.86595 6.67543 8.44203 6.49984 8 6.49984Z" fill="#7187A8"/>
</svg>
