<svg width="85" height="34" viewBox="0 0 85 34" fill="none" xmlns="http://www.w3.org/2000/svg">
<path d="M5.306 22C4.83 22.0933 4.36333 22.133 3.906 22.119C3.44867 22.105 3.04033 22.0163 2.681 21.853C2.32167 21.6897 2.051 21.433 1.869 21.083C1.70567 20.7703 1.617 20.453 1.603 20.131C1.59367 19.8043 1.589 19.4357 1.589 19.025V12.34H3.059V18.955C3.059 19.2583 3.06133 19.522 3.066 19.746C3.07533 19.97 3.12433 20.159 3.213 20.313C3.381 20.6023 3.647 20.768 4.011 20.81C4.37967 20.8473 4.81133 20.831 5.306 20.761V22ZM0.14 15.616V14.44H5.306V15.616H0.14ZM6.89992 22V14.44H8.20192V16.274L8.01992 16.036C8.11326 15.7933 8.23459 15.5717 8.38392 15.371C8.53326 15.1657 8.70592 14.9977 8.90192 14.867C9.09326 14.727 9.30559 14.6197 9.53892 14.545C9.77692 14.4657 10.0196 14.419 10.2669 14.405C10.5143 14.3863 10.7523 14.398 10.9809 14.44V15.812C10.7336 15.7467 10.4583 15.728 10.1549 15.756C9.85626 15.784 9.58092 15.8797 9.32892 16.043C9.09092 16.197 8.90192 16.3837 8.76192 16.603C8.62659 16.8223 8.52859 17.0673 8.46792 17.338C8.40726 17.604 8.37692 17.8863 8.37692 18.185V22H6.89992ZM12.454 13.201V11.78H13.917V13.201H12.454ZM12.454 22V14.44H13.917V22H12.454ZM19.5681 22.21C18.8447 22.21 18.2381 22.035 17.7481 21.685C17.2581 21.3303 16.8871 20.852 16.6351 20.25C16.3831 19.648 16.2571 18.969 16.2571 18.213C16.2571 17.457 16.3807 16.778 16.6281 16.176C16.8801 15.574 17.2487 15.1003 17.7341 14.755C18.2241 14.405 18.8261 14.23 19.5401 14.23C20.2494 14.23 20.8607 14.405 21.3741 14.755C21.8921 15.1003 22.2911 15.574 22.5711 16.176C22.8511 16.7733 22.9911 17.4523 22.9911 18.213C22.9911 18.969 22.8511 19.6503 22.5711 20.257C22.2957 20.859 21.9014 21.335 21.3881 21.685C20.8794 22.035 20.2727 22.21 19.5681 22.21ZM16.0121 25.36V14.44H17.3141V19.879H17.4821V25.36H16.0121ZM19.3651 20.887C19.8317 20.887 20.2167 20.768 20.5201 20.53C20.8281 20.292 21.0567 19.9723 21.2061 19.571C21.3601 19.165 21.4371 18.7123 21.4371 18.213C21.4371 17.7183 21.3601 17.2703 21.2061 16.869C21.0567 16.4677 20.8257 16.148 20.5131 15.91C20.2004 15.672 19.8014 15.553 19.3161 15.553C18.8587 15.553 18.4807 15.665 18.1821 15.889C17.8881 16.113 17.6687 16.4257 17.5241 16.827C17.3841 17.2283 17.3141 17.6903 17.3141 18.213C17.3141 18.7357 17.3841 19.1977 17.5241 19.599C17.6641 20.0003 17.8857 20.3153 18.1891 20.544C18.4924 20.7727 18.8844 20.887 19.3651 20.887Z" fill="#FF4F18"/>
<path d="M32.25 4.46289H44.8125C45.2267 4.46289 45.5625 4.79868 45.5625 5.21289C45.5625 5.6271 45.2267 5.96289 44.8125 5.96289H32.25V4.46289Z" fill="#FF4F18"/>
<path d="M53.25 4.46289C48.2794 4.46289 44.25 8.49233 44.25 13.4629V29.5879H45.75V13.4629C45.75 9.32076 49.1079 5.96289 53.25 5.96289H57.75V4.46289H53.25Z" fill="#FF4F18"/>
<path d="M53.625 7.46289C49.8971 7.46289 46.875 10.485 46.875 14.2129V29.5879H48.375V14.2129C48.375 11.3134 50.7255 8.96289 53.625 8.96289H57.75V7.46289H53.625Z" fill="#FF4F18"/>
<path d="M32.25 8.96289H40.125C40.9534 8.96289 41.625 9.63446 41.625 10.4629V29.5879H43.125V10.4629C43.125 8.80604 41.7819 7.46289 40.125 7.46289H32.25V8.96289Z" fill="#FF4F18"/>
<path d="M71.306 22C70.83 22.0933 70.3633 22.133 69.906 22.119C69.4487 22.105 69.0403 22.0163 68.681 21.853C68.3217 21.6897 68.051 21.433 67.869 21.083C67.7057 20.7703 67.617 20.453 67.603 20.131C67.5937 19.8043 67.589 19.4357 67.589 19.025V12.34H69.059V18.955C69.059 19.2583 69.0613 19.522 69.066 19.746C69.0753 19.97 69.1243 20.159 69.213 20.313C69.381 20.6023 69.647 20.768 70.011 20.81C70.3797 20.8473 70.8113 20.831 71.306 20.761V22ZM66.14 15.616V14.44H71.306V15.616H66.14ZM73.0399 13.201V11.78H74.5029V13.201H73.0399ZM73.0399 22V14.44H74.5029V22H73.0399ZM80.154 22.21C79.4307 22.21 78.824 22.035 78.334 21.685C77.844 21.3303 77.473 20.852 77.221 20.25C76.969 19.648 76.843 18.969 76.843 18.213C76.843 17.457 76.9667 16.778 77.214 16.176C77.466 15.574 77.8347 15.1003 78.32 14.755C78.81 14.405 79.412 14.23 80.126 14.23C80.8353 14.23 81.4467 14.405 81.96 14.755C82.478 15.1003 82.877 15.574 83.157 16.176C83.437 16.7733 83.577 17.4523 83.577 18.213C83.577 18.969 83.437 19.6503 83.157 20.257C82.8817 20.859 82.4873 21.335 81.974 21.685C81.4653 22.035 80.8587 22.21 80.154 22.21ZM76.598 25.36V14.44H77.9V19.879H78.068V25.36H76.598ZM79.951 20.887C80.4177 20.887 80.8027 20.768 81.106 20.53C81.414 20.292 81.6427 19.9723 81.792 19.571C81.946 19.165 82.023 18.7123 82.023 18.213C82.023 17.7183 81.946 17.2703 81.792 16.869C81.6427 16.4677 81.4117 16.148 81.099 15.91C80.7863 15.672 80.3873 15.553 79.902 15.553C79.4447 15.553 79.0667 15.665 78.768 15.889C78.474 16.113 78.2547 16.4257 78.11 16.827C77.97 17.2283 77.9 17.6903 77.9 18.213C77.9 18.7357 77.97 19.1977 78.11 19.599C78.25 20.0003 78.4717 20.3153 78.775 20.544C79.0783 20.7727 79.4703 20.887 79.951 20.887Z" fill="#FF4F18"/>
</svg>
