<svg width="50" height="18" viewBox="0 0 50 18" fill="none" xmlns="http://www.w3.org/2000/svg">
<path fill-rule="evenodd" clip-rule="evenodd" d="M23.9204 5.16992C24.5103 5.16992 25.0422 5.32051 25.5161 5.62207C25.9934 5.92035 26.3715 6.36261 26.6499 6.94922C26.9316 7.53247 27.0727 8.24835 27.0728 9.09668C27.0728 9.93508 26.9347 10.6478 26.6597 11.2344C26.3846 11.8209 26.0105 12.2689 25.5366 12.5771C25.0627 12.8854 24.5252 13.0391 23.9253 13.0391C23.4879 13.039 23.1247 12.9661 22.8364 12.8203C22.5484 12.6746 22.3167 12.4992 22.1411 12.2939C21.9688 12.0851 21.8339 11.8878 21.7378 11.7021H21.6636V15.7686H19.8638V5.26855H21.6333V6.53125H21.7378C21.8305 6.34584 21.9616 6.14899 22.1304 5.94043C22.2994 5.72832 22.5286 5.54758 22.8169 5.39844C23.1052 5.24599 23.473 5.16993 23.9204 5.16992ZM23.4233 6.64648C23.0389 6.64648 22.7123 6.74704 22.4438 6.94922C22.1754 7.1514 21.9717 7.43523 21.8325 7.7998C21.6967 8.16428 21.6284 8.59327 21.6284 9.08691C21.6284 9.58076 21.6982 10.0136 21.8374 10.3848C21.9799 10.7559 22.1836 11.0461 22.4487 11.2549C22.7172 11.4604 23.0422 11.5625 23.4233 11.5625C23.8209 11.5625 24.154 11.4571 24.4224 11.2451C24.6907 11.0298 24.8929 10.7362 25.0288 10.3652C25.168 9.99071 25.2378 9.56419 25.2378 9.08691C25.2378 8.61303 25.1696 8.19207 25.0337 7.82422C24.8978 7.45643 24.6957 7.16775 24.4272 6.95898C24.1588 6.75036 23.8242 6.64648 23.4233 6.64648Z" fill="#F46539"/>
<path fill-rule="evenodd" clip-rule="evenodd" d="M45.0024 5.16992C45.5924 5.16992 46.1242 5.32051 46.5981 5.62207C47.0754 5.92035 47.4535 6.36261 47.7319 6.94922C48.0136 7.53247 48.1547 8.24835 48.1548 9.09668C48.1548 9.93508 48.0167 10.6478 47.7417 11.2344C47.4667 11.8209 47.0925 12.2689 46.6187 12.5771C46.1447 12.8854 45.6072 13.0391 45.0073 13.0391C44.5699 13.039 44.2068 12.9661 43.9185 12.8203C43.6304 12.6746 43.3987 12.4992 43.2231 12.2939C43.0508 12.0851 42.9159 11.8878 42.8198 11.7021H42.7456V15.7686H40.9458V5.26855H42.7153V6.53125H42.8198C42.9126 6.34584 43.0436 6.14899 43.2124 5.94043C43.3814 5.72832 43.6106 5.54758 43.8989 5.39844C44.1873 5.24599 44.555 5.16993 45.0024 5.16992ZM44.5054 6.64648C44.1209 6.64648 43.7943 6.74704 43.5259 6.94922C43.2574 7.1514 43.0538 7.43523 42.9146 7.7998C42.7787 8.16428 42.7105 8.59327 42.7104 9.08691C42.7104 9.58076 42.7802 10.0136 42.9194 10.3848C43.0619 10.7559 43.2656 11.0461 43.5308 11.2549C43.7992 11.4604 44.1242 11.5625 44.5054 11.5625C44.9029 11.5625 45.236 11.4571 45.5044 11.2451C45.7727 11.0298 45.975 10.7362 46.1108 10.3652C46.25 9.99071 46.3198 9.56419 46.3198 9.08691C46.3198 8.61303 46.2516 8.19207 46.1157 7.82422C45.9798 7.45643 45.7777 7.16775 45.5093 6.95898C45.2409 6.75036 44.9062 6.64648 44.5054 6.64648Z" fill="#F46539"/>
<path d="M9.96924 4.26953H6.82178V12.9053H4.99268V4.26953H1.84521V2.72363H9.96924V4.26953Z" fill="#F46539"/>
<path d="M14.7046 5.1748C14.8304 5.18144 14.9352 5.19242 15.0181 5.20898V6.86523C14.9418 6.83872 14.8205 6.81481 14.6548 6.79492C14.4924 6.77172 14.3346 6.76074 14.1821 6.76074C13.8541 6.76078 13.5591 6.83213 13.2974 6.97461C13.039 7.11377 12.8351 7.30725 12.686 7.55566C12.5369 7.80424 12.4624 8.09121 12.4624 8.41602V12.9053H10.6626V5.26855H12.4077V6.54199H12.4868C12.626 6.10128 12.8647 5.76109 13.2026 5.52246C13.544 5.28051 13.9341 5.15918 14.3716 5.15918C14.4709 5.15919 14.5821 5.16487 14.7046 5.1748Z" fill="#F46539"/>
<path d="M18.0132 12.9053H16.2134V5.26855H18.0132V12.9053Z" fill="#F46539"/>
<path d="M35.8091 4.26953H32.6616V12.9053H30.8325V4.26953H27.6851V2.72363H35.8091V4.26953Z" fill="#F46539"/>
<path d="M39.0952 12.9053H37.2954V5.26855H39.0952V12.9053Z" fill="#F46539"/>
<path d="M17.1177 2.23145C17.406 2.23145 17.6518 2.3273 17.854 2.51953C18.0595 2.70845 18.1626 2.93916 18.1626 3.21094C18.1625 3.47919 18.0593 3.70924 17.854 3.90137C17.6518 4.09029 17.406 4.18555 17.1177 4.18555C16.8328 4.18545 16.5877 4.09019 16.3823 3.90137C16.177 3.70923 16.0738 3.47921 16.0737 3.21094C16.0737 2.93916 16.1768 2.70845 16.3823 2.51953C16.5877 2.32742 16.8328 2.23155 17.1177 2.23145Z" fill="#F46539"/>
<path d="M38.1997 2.23145C38.4881 2.23145 38.7339 2.3273 38.936 2.51953C39.1415 2.70845 39.2446 2.93916 39.2446 3.21094C39.2446 3.47919 39.1413 3.70924 38.936 3.90137C38.7339 4.09029 38.4881 4.18555 38.1997 4.18555C37.9149 4.18545 37.6697 4.09019 37.4644 3.90137C37.259 3.70923 37.1558 3.47921 37.1558 3.21094C37.1558 2.93916 37.2589 2.70845 37.4644 2.51953C37.6697 2.32742 37.9149 2.23155 38.1997 2.23145Z" fill="#F46539"/>
</svg>
