<svg width="26" height="26" viewBox="0 0 26 26" fill="none" xmlns="http://www.w3.org/2000/svg">
<path d="M8.79395 4.62695C10.2234 4.62695 11.3828 5.80313 11.3828 7.25391V23.3525C11.3828 23.7099 11.0927 24 10.7354 24C10.378 24 10.0879 23.7099 10.0879 23.3525V7.25391C10.0879 6.52852 9.50867 5.94043 8.79395 5.94043H2.65625C2.29377 5.94018 2 5.64574 2 5.2832C2.0002 4.92084 2.2939 4.62721 2.65625 4.62695H8.79395Z" fill="white"/>
<path d="M23.3438 2C23.7061 2.00025 23.9997 2.29392 24 2.65625C24 3.01879 23.7062 3.31322 23.3438 3.31348H20.1172C16.5438 3.31373 13.6475 6.25407 13.6475 9.88086V23.3525C13.6475 23.7099 13.3574 24 13 24C12.6426 24 12.3525 23.7099 12.3525 23.3525V9.88086C12.3525 5.52868 15.8291 2.00025 20.1172 2H23.3438Z" fill="white"/>
<path d="M23.3438 4.62695C23.7061 4.6272 23.9998 4.92084 24 5.2832C24 5.64574 23.7062 5.94018 23.3438 5.94043H20.4414C17.9399 5.94043 15.9122 7.99834 15.9121 10.5371V23.3525C15.9121 23.7099 15.622 24 15.2646 24C14.9073 24 14.6172 23.7099 14.6172 23.3525V10.5371C14.6173 7.27295 17.2252 4.62695 20.4414 4.62695H23.3438Z" fill="white"/>
<path d="M12.8379 2C13.1951 2 13.4851 2.29377 13.4854 2.65625C13.4854 3.01894 13.1953 3.31348 12.8379 3.31348H2.65625C2.29377 3.31322 2 3.01879 2 2.65625C2.00025 2.29393 2.29393 2.00025 2.65625 2H12.8379Z" fill="white"/>
</svg>
