<svg width="129" height="128" viewBox="0 0 129 128" fill="none" xmlns="http://www.w3.org/2000/svg">
<g id="Vector">
<path fill-rule="evenodd" clip-rule="evenodd" d="M107 9.20833H22C15.3496 9.20833 9.95833 14.5996 9.95833 21.25V106.25C9.95833 112.9 15.3496 118.292 22 118.292H107C113.65 118.292 119.042 112.9 119.042 106.25V21.25C119.042 14.5996 113.65 9.20833 107 9.20833ZM22 0C10.264 0 0.75 9.51395 0.75 21.25V106.25C0.75 117.986 10.264 127.5 22 127.5H107C118.736 127.5 128.25 117.986 128.25 106.25V21.25C128.25 9.51395 118.736 0 107 0H22Z" fill="#FF4F18"/>
<path fill-rule="evenodd" clip-rule="evenodd" d="M84.4219 54.5417C90.3388 54.5417 95.1354 49.7451 95.1354 43.8281C95.1354 37.9112 90.3388 33.1146 84.4219 33.1146C78.505 33.1146 73.7083 37.9112 73.7083 43.8281C73.7083 49.7451 78.505 54.5417 84.4219 54.5417ZM84.4219 63.75C95.4244 63.75 104.344 54.8307 104.344 43.8281C104.344 32.8256 95.4244 23.9062 84.4219 23.9062C73.4193 23.9062 64.5 32.8256 64.5 43.8281C64.5 54.8307 73.4193 63.75 84.4219 63.75Z" fill="#FF4F18"/>
<path fill-rule="evenodd" clip-rule="evenodd" d="M40.3839 57.4485L72.8478 85.8544L96.6815 69.9653L123.229 92.088C125.182 93.7159 125.446 96.6191 123.818 98.5725C122.19 100.526 119.287 100.79 117.334 99.162L96.0685 81.441L72.0897 97.4268L40.8036 70.0515L11.9744 98.8806C10.1763 100.679 7.26115 100.679 5.46311 98.8806C3.66507 97.0826 3.66507 94.1674 5.46311 92.3694L40.3839 57.4485Z" fill="#FF4F18"/>
</g>
</svg>
