<svg width="239" height="475" viewBox="0 0 239 475" fill="none" xmlns="http://www.w3.org/2000/svg">
<path d="M368.992 455.833C361.27 461.251 352.949 465.605 344.043 468.795C335.136 471.984 325.942 473.902 316.536 474.617L316.005 467.64C324.805 466.97 333.382 465.177 341.682 462.205C349.983 459.233 357.748 455.174 364.973 450.104L368.992 455.833Z" fill="white"/>
<path d="M215.567 434C231.689 445.259 247.811 453.858 263.602 459.582L261.217 466.161C244.758 460.195 228.095 451.286 211.558 439.737L215.567 434Z" fill="white"/>
<path d="M427.966 362.244C422.519 381.665 415.298 399.126 406.368 414.184L400.349 410.614C408.918 396.167 415.917 379.288 421.226 360.354L427.966 362.244Z" fill="white"/>
<path d="M136.785 356.847C148.659 372.108 160.933 386.019 173.436 398.438L170.969 400.921L170.97 400.922L168.502 403.403C155.771 390.758 143.302 376.622 131.26 361.146L136.785 356.847Z" fill="white"/>
<path d="M82.6512 243.406C84.1667 245.585 83.3904 248.481 81.6609 250.233L78.0916 254.153C80.8422 257.993 85.1678 265.358 89.9959 272.414L119.643 251.102L120.937 254.108C122.342 256.701 121.847 260.114 119.896 262.694L99.6014 288.286C101.006 290.879 102.241 292.539 103.084 294.095C107.58 302.392 111.189 313.997 106.163 317.083C101.137 320.169 93.1149 310.928 88.619 302.631C87.776 301.075 87.0434 299.106 85.6385 296.513L54.6658 302.398C51.5907 302.904 48.5669 301.65 47.1619 299.058L45.7567 296.465L77.9334 279.82C76.3613 276.041 74.6757 272.331 73.1522 268.999C72.5932 267.905 72.0368 266.808 71.4822 265.708L71.618 265.639C70.571 263.335 69.6723 261.312 69.0438 259.707L64.1805 260.62C61.889 261.336 59.2566 260.188 58.1326 258.113L57.2899 256.558L70.4764 251.226L81.8074 241.851L82.6512 243.406Z" fill="white"/>
<path d="M440.121 250.543C440.641 270.146 439.979 288.985 438.17 306.838L431.207 306.133C432.984 288.599 433.637 270.059 433.125 250.729L440.121 250.543Z" fill="white"/>
<path d="M35.8934 159.111C38.6553 167.916 41.6202 176.752 44.7899 185.604C47.9595 194.455 51.2771 203.164 54.7322 211.721L48.241 214.342C44.751 205.699 41.4 196.903 38.199 187.964C34.9979 179.024 32.0026 170.1 29.2127 161.206H29.2147L35.8934 159.111Z" fill="white"/>
<path d="M425.729 138.854C429.956 157.677 433.246 176.223 435.622 194.344L432.154 194.8L432.153 194.799L428.683 195.255C426.336 177.349 423.084 159.011 418.902 140.389L425.729 138.854Z" fill="white"/>
<path d="M11.6111 50.3643C13.9584 68.2702 17.2118 86.6072 21.3934 105.229L14.5643 106.763C10.3377 87.9397 7.04617 69.3947 4.67072 51.2734L11.6111 50.3643Z" fill="white"/>
<path d="M392.053 31.2754C395.543 39.9189 398.894 48.7158 402.096 57.6553C405.297 66.5943 408.29 75.5182 411.08 84.4121L404.401 86.5068C401.639 77.7019 398.674 68.866 395.505 60.0146C392.335 51.1633 389.017 42.454 385.562 33.8975L392.053 31.2754Z" fill="white"/>
<path d="M9.08771 -60.5146C7.31028 -42.9813 6.6584 -24.441 7.17072 -5.11133L0.173649 -4.92578L0.171696 -4.92676C-0.347828 -24.5295 0.314122 -43.3677 2.12384 -61.2197L9.08771 -60.5146Z" fill="white"/>
<path d="M341.232 -69.2471C350.9 -53.737 360.129 -37.3182 368.812 -20.0908L362.563 -16.9414C353.973 -33.9851 344.846 -50.2182 335.293 -65.5439L341.232 -69.2471Z" fill="white"/>
<path d="M309.033 -115.527L306.273 -113.377L306.271 -113.378L303.511 -111.229C291.636 -126.49 279.362 -140.401 266.858 -152.82L271.792 -157.786C284.522 -145.141 296.991 -131.004 309.033 -115.527Z" fill="white"/>
<path d="M39.9451 -164.996C31.3768 -150.549 24.378 -133.67 19.0682 -114.736L12.3289 -116.627C17.7753 -136.048 24.9954 -153.509 33.9256 -168.566L39.9451 -164.996Z" fill="white"/>
<path d="M179.076 -220.544C195.535 -214.578 212.199 -205.669 228.735 -194.12L224.727 -188.381C208.606 -199.64 192.484 -208.24 176.692 -213.964L179.076 -220.544Z" fill="white"/>
<path d="M124.29 -222.021C115.489 -221.352 106.912 -219.559 98.6121 -216.587C90.312 -213.615 82.5462 -209.556 75.3211 -204.486L71.3016 -210.216C79.0239 -215.634 87.3451 -219.987 96.2518 -223.177C105.159 -226.366 114.352 -228.284 123.759 -229L124.29 -222.021Z" fill="white"/>
</svg>
