<svg width="259" height="408" viewBox="0 0 259 408" fill="none" xmlns="http://www.w3.org/2000/svg">
<path d="M187.699 684.833C179.977 690.251 171.656 694.605 162.75 697.795C153.843 700.984 144.649 702.902 135.243 703.617L134.712 696.64C143.512 695.97 152.089 694.177 160.389 691.205C168.69 688.233 176.455 684.174 183.68 679.104L187.699 684.833Z" fill="white"/>
<path d="M34.2742 663C50.3957 674.259 66.5179 682.858 82.3094 688.582L79.9236 695.161C63.465 689.195 46.8018 680.286 30.2654 668.737L34.2742 663Z" fill="white"/>
<path d="M246.673 591.244C241.226 610.665 234.005 628.126 225.075 643.184L219.056 639.614C227.625 625.167 234.624 608.288 239.933 589.354L246.673 591.244Z" fill="white"/>
<path d="M-44.508 585.847C-32.6336 601.108 -20.36 615.019 -7.85663 627.438L-10.3244 629.921L-10.3234 629.922L-12.7912 632.403C-25.5218 619.758 -37.9913 605.622 -50.0334 590.146L-44.508 585.847Z" fill="white"/>
<path d="M-103.561 491.56C-94.9706 508.603 -85.8439 524.836 -76.2912 540.162L-79.2629 542.014L-79.2619 542.015L-82.2316 543.864C-91.8993 528.354 -101.128 511.935 -109.811 494.708L-103.561 491.56Z" fill="white"/>
<path d="M258.828 479.543C259.348 499.146 258.687 517.985 256.877 535.838L249.914 535.133C251.691 517.599 252.344 499.059 251.832 479.729L258.828 479.543Z" fill="white"/>
<path d="M-145.4 388.111C-142.638 396.916 -139.673 405.752 -136.503 414.604C-133.334 423.455 -130.016 432.164 -126.561 440.721L-133.052 443.342C-136.542 434.699 -139.893 425.903 -143.094 416.964C-146.295 408.024 -149.29 399.1 -152.08 390.206H-152.078L-145.4 388.111Z" fill="white"/>
<path d="M244.436 367.854C248.663 386.677 251.953 405.223 254.329 423.344L250.861 423.8L250.86 423.799L247.39 424.255C245.043 406.349 241.791 388.011 237.609 369.389L244.436 367.854Z" fill="white"/>
<path d="M-169.682 279.364C-167.335 297.27 -164.081 315.607 -159.9 334.229L-166.729 335.763C-170.955 316.94 -174.247 298.395 -176.622 280.273L-169.682 279.364Z" fill="white"/>
<path d="M210.76 260.275C214.25 268.919 217.601 277.716 220.803 286.655C224.004 295.594 226.997 304.518 229.787 313.412L223.108 315.507C220.346 306.702 217.381 297.866 214.212 289.015C211.042 280.163 207.724 271.454 204.269 262.897L210.76 260.275Z" fill="white"/>
<path d="M148.647 156.221C151.453 154.253 155.521 156.38 159.418 160.077L159.939 159.753C160.422 160.527 160.902 161.306 161.383 162.085C163.475 164.376 165.442 167.013 167.041 169.576C167.977 171.077 168.828 172.999 170.388 175.501L200.945 167.735C203.983 167.043 207.078 168.109 208.638 170.611L210.199 173.114L179.099 191.691C182.901 199.456 187.185 206.882 189.199 211.225L193.998 210.016C196.241 209.161 198.939 210.148 200.187 212.149L201.124 213.65L188.287 219.777L177.55 229.827L176.613 228.326C174.967 226.244 175.564 223.306 177.183 221.451L180.508 217.32C177.528 213.655 172.76 206.569 167.511 199.82L139.22 222.902L137.744 219.98C136.184 217.478 136.47 214.041 138.26 211.347L156.954 184.564C155.393 182.062 154.06 180.48 153.124 178.979C148.13 170.971 143.819 159.608 148.647 156.221Z" fill="white"/>
<path d="M-172.205 168.485C-173.983 186.019 -174.635 204.559 -174.122 223.889L-181.119 224.074L-181.121 224.073C-181.641 204.47 -180.979 185.632 -179.169 167.78L-172.205 168.485Z" fill="white"/>
<path d="M127.74 113.473L124.98 115.623L124.978 115.622L122.218 117.771C110.343 102.51 98.0687 88.5993 85.5652 76.1797L90.4988 71.2139C103.229 83.8592 115.698 97.996 127.74 113.473Z" fill="white"/>
<path d="M-141.348 64.0039C-149.916 78.4513 -156.915 95.33 -162.225 114.264L-168.964 112.373C-163.518 92.9524 -156.298 75.4912 -147.367 60.4336L-141.348 64.0039Z" fill="white"/>
<path d="M-2.21698 8.45605C14.242 14.4221 30.9055 23.3309 47.4422 34.8799L43.4344 40.6191C27.3128 29.36 11.1909 20.7604 -4.60077 15.0361L-2.21698 8.45605Z" fill="white"/>
<path d="M-57.0031 6.97852C-65.8038 7.64796 -74.3807 9.44089 -82.6808 12.4131C-90.981 15.3853 -98.7467 19.4444 -105.972 24.5137L-109.991 18.7842C-102.269 13.3661 -93.9479 9.01271 -85.0412 5.82324C-76.1344 2.63377 -66.9407 0.715551 -57.5344 0L-57.0031 6.97852Z" fill="white"/>
</svg>
