<svg width="20" height="20" viewBox="0 0 20 20" fill="none" xmlns="http://www.w3.org/2000/svg">
<g id="plus">
<path id="Vector" fill-rule="evenodd" clip-rule="evenodd" d="M10.8333 4.58333C10.8333 4.1231 10.4602 3.75 9.99992 3.75C9.53968 3.75 9.16658 4.1231 9.16658 4.58333V9.58333H4.16659C3.70635 9.58333 3.33325 9.95643 3.33325 10.4167C3.33325 10.8769 3.70635 11.25 4.16659 11.25H9.16658V16.25C9.16658 16.7102 9.53968 17.0833 9.99992 17.0833C10.4602 17.0833 10.8333 16.7102 10.8333 16.25V11.25H15.8333C16.2935 11.25 16.6666 10.8769 16.6666 10.4167C16.6666 9.95643 16.2935 9.58333 15.8333 9.58333H10.8333V4.58333Z" fill="white"/>
</g>
</svg>
