<svg width="16" height="16" viewBox="0 0 16 16" fill="none" xmlns="http://www.w3.org/2000/svg">
  <path d="M13.3 8.74667C13.3267 8.50667 13.3333 8.25333 13.3333 8C13.3333 7.74667 13.3133 7.49333 13.2867 7.25333L14.9 6.00667C15.0467 5.88667 15.0867 5.68 15 5.50667L13.4667 2.82667C13.38 2.65333 13.18 2.6 13.0133 2.65333L11.1067 3.41333C10.7133 3.11333 10.2867 2.86 9.82 2.67333L9.54 0.64C9.51333 0.453333 9.35333 0.333333 9.16667 0.333333H6.1C5.91333 0.333333 5.76 0.453333 5.73333 0.64L5.45333 2.67333C4.98667 2.86 4.56 3.12 4.16667 3.41333L2.26 2.65333C2.09333 2.6 1.89333 2.65333 1.80667 2.82667L0.273333 5.50667C0.18 5.68 0.226667 5.88667 0.373333 6.00667L1.98667 7.25333C1.96 7.49333 1.94 7.75333 1.94 8C1.94 8.24667 1.96 8.50667 1.98667 8.74667L0.373333 9.99333C0.226667 10.1133 0.18 10.32 0.273333 10.4933L1.80667 13.1733C1.89333 13.3467 2.09333 13.4 2.26 13.3467L4.16667 12.5867C4.56 12.8867 4.98667 13.14 5.45333 13.3267L5.73333 15.36C5.76 15.5467 5.91333 15.6667 6.1 15.6667H9.16667C9.35333 15.6667 9.51333 15.5467 9.54 15.36L9.82 13.3267C10.2867 13.14 10.7133 12.88 11.1067 12.5867L13.0133 13.3467C13.18 13.4 13.38 13.3467 13.4667 13.1733L15 10.4933C15.0867 10.32 15.0467 10.1133 14.9 9.99333L13.3 8.74667ZM7.63333 10.6667C6.34667 10.6667 5.3 9.62 5.3 8.33333C5.3 7.04667 6.34667 6 7.63333 6C8.92 6 9.96667 7.04667 9.96667 8.33333C9.96667 9.62 8.92 10.6667 7.63333 10.6667Z" fill="currentColor"/>
</svg>
