<svg width="120" height="14" viewBox="0 0 120 14" fill="none" xmlns="http://www.w3.org/2000/svg">
<path d="M2.5 5.90909C2.5 5.36553 2.63258 4.87003 2.89773 4.42259C3.16288 3.97514 3.51918 3.61884 3.96662 3.35369C4.41406 3.08854 4.90956 2.95597 5.45312 2.95597C5.92377 2.95597 6.35795 3.05705 6.75568 3.25923C7.15672 3.46141 7.48816 3.73816 7.75 4.08949C8.01184 4.4375 8.17424 4.83191 8.23722 5.27273H7.03409C6.9678 4.93134 6.78385 4.65294 6.48224 4.4375C6.18063 4.21875 5.83759 4.10938 5.45312 4.10938C5.12169 4.10938 4.82008 4.19058 4.5483 4.35298C4.27652 4.51539 4.05942 4.73248 3.89702 5.00426C3.73461 5.27604 3.65341 5.57765 3.65341 5.90909C3.65341 6.24053 3.73461 6.54214 3.89702 6.81392C4.05942 7.0857 4.27652 7.30279 4.5483 7.4652C4.82008 7.6276 5.12169 7.70881 5.45312 7.70881C5.83759 7.70881 6.16241 7.60109 6.42756 7.38565C6.69602 7.1669 6.86506 6.88684 6.93466 6.54545H8.13778C8.07481 6.98627 7.92069 7.38234 7.67543 7.73366C7.43016 8.08168 7.11529 8.35677 6.73082 8.55895C6.34967 8.76113 5.92377 8.86222 5.45312 8.86222C4.90956 8.86222 4.41406 8.72964 3.96662 8.46449C3.51918 8.19934 3.16288 7.84304 2.89773 7.3956C2.63258 6.94815 2.5 6.45265 2.5 5.90909ZM5.40341 11.1591C4.68087 11.1591 4.00142 11.0232 3.36506 10.7514C2.73201 10.4796 2.17353 10.1035 1.68963 9.62287C1.20904 9.13897 0.831203 8.58049 0.556108 7.94744C0.284328 7.31439 0.150095 6.63494 0.153409 5.90909C0.156723 5.18324 0.294271 4.50379 0.566051 3.87074C0.841146 3.23769 1.21899 2.68087 1.69957 2.20028C2.18016 1.71638 2.73698 1.33854 3.37003 1.06676C4.00308 0.794981 4.68087 0.659091 5.40341 0.659091C6.12926 0.659091 6.80871 0.794981 7.44176 1.06676C8.07813 1.33854 8.63494 1.71638 9.11222 2.20028C9.5928 2.68087 9.96899 3.23769 10.2408 3.87074C10.5125 4.50379 10.6501 5.18324 10.6534 5.90909C10.6567 6.63494 10.5225 7.31439 10.2507 7.94744C9.97893 8.58049 9.60275 9.13897 9.12216 9.62287C8.64157 10.1035 8.0831 10.4796 7.44673 10.7514C6.81037 11.0232 6.12926 11.1591 5.40341 11.1591ZM5.40341 10.0057C5.97017 10.0057 6.50213 9.89962 6.99929 9.6875C7.49645 9.47538 7.93229 9.18205 8.30682 8.80753C8.68134 8.433 8.97467 7.99882 9.18679 7.50497C9.39891 7.00781 9.50331 6.47751 9.5 5.91406C9.49669 5.3473 9.38897 4.81534 9.17685 4.31818C8.96473 3.82102 8.6714 3.38518 8.29688 3.01065C7.92235 2.63613 7.48816 2.3428 6.99432 2.13068C6.50047 1.91856 5.97017 1.8125 5.40341 1.8125C4.83996 1.8125 4.31132 1.91856 3.81747 2.13068C3.32363 2.3428 2.88944 2.63778 2.51491 3.01562C2.14039 3.39015 1.84541 3.82599 1.62997 4.32315C1.41785 4.817 1.31013 5.3473 1.30682 5.91406C1.3035 6.47419 1.40791 7.00284 1.62003 7.5C1.83215 7.99384 2.12547 8.42803 2.5 8.80256C2.87784 9.17708 3.31368 9.47206 3.80753 9.6875C4.30469 9.89962 4.83665 10.0057 5.40341 10.0057ZM16.802 11V10.1051L20.1628 6.42614C20.5572 5.99526 20.882 5.62074 21.1373 5.30256C21.3925 4.98106 21.5814 4.67945 21.704 4.39773C21.83 4.11269 21.8929 3.81439 21.8929 3.50284C21.8929 3.14489 21.8068 2.83499 21.6344 2.57315C21.4654 2.31132 21.2334 2.10914 20.9384 1.96662C20.6434 1.8241 20.312 1.75284 19.9441 1.75284C19.553 1.75284 19.2116 1.83404 18.9199 1.99645C18.6316 2.15554 18.4078 2.37926 18.2488 2.66761C18.093 2.95597 18.0151 3.29403 18.0151 3.68182H16.8418C16.8418 3.08523 16.9793 2.56155 17.2544 2.1108C17.5295 1.66004 17.9041 1.30871 18.378 1.05682C18.8553 0.804924 19.3906 0.678977 19.9838 0.678977C20.5804 0.678977 21.1091 0.804924 21.5698 1.05682C22.0305 1.30871 22.3917 1.64844 22.6536 2.07599C22.9154 2.50355 23.0463 2.97917 23.0463 3.50284C23.0463 3.87737 22.9784 4.24361 22.8425 4.60156C22.7099 4.9562 22.4779 5.35227 22.1465 5.78977C21.8184 6.22396 21.3626 6.75426 20.7793 7.38068L18.4924 9.8267V9.90625H23.2253V11H16.802ZM28.5996 11.1392C27.8506 11.1392 27.2125 10.9354 26.6855 10.5277C26.1586 10.1167 25.7559 9.52178 25.4775 8.7429C25.199 7.9607 25.0598 7.0161 25.0598 5.90909C25.0598 4.80871 25.199 3.86908 25.4775 3.0902C25.7592 2.308 26.1635 1.71141 26.6905 1.30043C27.2208 0.886126 27.8572 0.678977 28.5996 0.678977C29.342 0.678977 29.9767 0.886126 30.5037 1.30043C31.034 1.71141 31.4384 2.308 31.7168 3.0902C31.9985 3.86908 32.1394 4.80871 32.1394 5.90909C32.1394 7.0161 32.0002 7.9607 31.7218 8.7429C31.4434 9.52178 31.0407 10.1167 30.5137 10.5277C29.9867 10.9354 29.3487 11.1392 28.5996 11.1392ZM28.5996 10.0455C29.342 10.0455 29.9187 9.6875 30.3297 8.97159C30.7407 8.25568 30.9462 7.23485 30.9462 5.90909C30.9462 5.02746 30.8517 4.27675 30.6628 3.65696C30.4772 3.03717 30.2087 2.56487 29.8574 2.24006C29.5094 1.91525 29.0901 1.75284 28.5996 1.75284C27.8638 1.75284 27.2888 2.11577 26.8745 2.84162C26.4602 3.56416 26.253 4.58665 26.253 5.90909C26.253 6.79072 26.3458 7.53977 26.5314 8.15625C26.717 8.77273 26.9838 9.24171 27.3319 9.56321C27.6832 9.88471 28.1058 10.0455 28.5996 10.0455ZM34.0286 11V10.1051L37.3894 6.42614C37.7838 5.99526 38.1086 5.62074 38.3638 5.30256C38.619 4.98106 38.8079 4.67945 38.9306 4.39773C39.0565 4.11269 39.1195 3.81439 39.1195 3.50284C39.1195 3.14489 39.0333 2.83499 38.861 2.57315C38.6919 2.31132 38.4599 2.10914 38.165 1.96662C37.87 1.8241 37.5385 1.75284 37.1706 1.75284C36.7795 1.75284 36.4382 1.83404 36.1465 1.99645C35.8581 2.15554 35.6344 2.37926 35.4753 2.66761C35.3195 2.95597 35.2417 3.29403 35.2417 3.68182H34.0684C34.0684 3.08523 34.2059 2.56155 34.481 2.1108C34.7561 1.66004 35.1306 1.30871 35.6046 1.05682C36.0819 0.804924 36.6171 0.678977 37.2104 0.678977C37.807 0.678977 38.3356 0.804924 38.7963 1.05682C39.257 1.30871 39.6183 1.64844 39.8801 2.07599C40.142 2.50355 40.2729 2.97917 40.2729 3.50284C40.2729 3.87737 40.205 4.24361 40.0691 4.60156C39.9365 4.9562 39.7045 5.35227 39.373 5.78977C39.0449 6.22396 38.5892 6.75426 38.0059 7.38068L35.7189 9.8267V9.90625H40.4519V11H34.0286ZM42.0478 8.91193V7.89773L46.5222 0.818182H47.258V2.3892H46.7608L43.3801 7.73864V7.81818H49.4057V8.91193H42.0478ZM46.8404 11V8.60369V8.13139V0.818182H48.0137V11H46.8404ZM54.8285 1.91193V0.818182H62.4648V1.91193H59.2631V11H58.0302V1.91193H54.8285ZM63.4157 11V3.36364H64.5492V4.51705H64.6287C64.7679 4.1392 65.0198 3.83262 65.3844 3.5973C65.749 3.36198 66.16 3.24432 66.6174 3.24432C66.7035 3.24432 66.8113 3.24597 66.9405 3.24929C67.0698 3.2526 67.1676 3.25758 67.2338 3.2642V4.45739C67.1941 4.44744 67.1029 4.43253 66.9604 4.41264C66.8212 4.38944 66.6737 4.37784 66.5179 4.37784C66.1467 4.37784 65.8153 4.45573 65.5236 4.61151C65.2353 4.76397 65.0066 4.97609 64.8375 5.24787C64.6718 5.51634 64.589 5.82292 64.589 6.16761V11H63.4157ZM68.6246 11V3.36364H69.7979V11H68.6246ZM69.2212 2.09091C68.9925 2.09091 68.7953 2.01302 68.6296 1.85724C68.4672 1.70147 68.386 1.5142 68.386 1.29545C68.386 1.0767 68.4672 0.889441 68.6296 0.733664C68.7953 0.577888 68.9925 0.5 69.2212 0.5C69.4499 0.5 69.6455 0.577888 69.8079 0.733664C69.9736 0.889441 70.0565 1.0767 70.0565 1.29545C70.0565 1.5142 69.9736 1.70147 69.8079 1.85724C69.6455 2.01302 69.4499 2.09091 69.2212 2.09091ZM71.9469 13.8636V3.36364H73.0804V4.5767H73.2196C73.3058 4.44413 73.4251 4.27509 73.5776 4.0696C73.7334 3.8608 73.9554 3.67519 74.2438 3.51278C74.5355 3.34706 74.9299 3.2642 75.427 3.2642C76.07 3.2642 76.6368 3.42495 77.1273 3.74645C77.6178 4.06794 78.0007 4.52367 78.2757 5.11364C78.5508 5.7036 78.6884 6.39962 78.6884 7.2017C78.6884 8.01042 78.5508 8.71141 78.2757 9.30469C78.0007 9.89465 77.6195 10.352 77.1323 10.6768C76.6451 10.9983 76.0833 11.1591 75.4469 11.1591C74.9564 11.1591 74.5636 11.0779 74.2686 10.9155C73.9737 10.7498 73.7466 10.5625 73.5875 10.3537C73.4284 10.1416 73.3058 9.96591 73.2196 9.8267H73.1202V13.8636H71.9469ZM73.1003 7.18182C73.1003 7.75852 73.1848 8.26728 73.3539 8.7081C73.5229 9.1456 73.7698 9.48864 74.0946 9.73722C74.4194 9.98248 74.8172 10.1051 75.2878 10.1051C75.7784 10.1051 76.1877 9.97585 76.5158 9.71733C76.8472 9.45549 77.0958 9.10417 77.2615 8.66335C77.4306 8.21922 77.5151 7.72538 77.5151 7.18182C77.5151 6.64489 77.4322 6.16098 77.2665 5.73011C77.1041 5.29593 76.8572 4.95289 76.5257 4.70099C76.1976 4.44579 75.785 4.31818 75.2878 4.31818C74.8105 4.31818 74.4095 4.43916 74.0847 4.68111C73.7599 4.91974 73.5146 5.2545 73.3489 5.68537C73.1832 6.11293 73.1003 6.61174 73.1003 7.18182ZM83.7992 3.36364V4.35795H79.8418V3.36364H83.7992ZM80.9952 1.53409H82.1685V8.8125C82.1685 9.14394 82.2166 9.39252 82.3127 9.55824C82.4121 9.72064 82.5381 9.83002 82.6905 9.88636C82.8463 9.93939 83.0104 9.96591 83.1827 9.96591C83.312 9.96591 83.418 9.95928 83.5009 9.94602C83.5837 9.92945 83.65 9.91619 83.6998 9.90625L83.9384 10.9602C83.8588 10.9901 83.7478 11.0199 83.6053 11.0497C83.4628 11.0829 83.2821 11.0994 83.0634 11.0994C82.7319 11.0994 82.4071 11.0282 82.089 10.8857C81.7741 10.7431 81.5123 10.526 81.3034 10.2344C81.098 9.94271 80.9952 9.57481 80.9952 9.13068V1.53409ZM85.5641 11V3.36364H86.7374V11H85.5641ZM86.1607 2.09091C85.932 2.09091 85.7348 2.01302 85.5691 1.85724C85.4067 1.70147 85.3255 1.5142 85.3255 1.29545C85.3255 1.0767 85.4067 0.889441 85.5691 0.733664C85.7348 0.577888 85.932 0.5 86.1607 0.5C86.3894 0.5 86.5849 0.577888 86.7473 0.733664C86.9131 0.889441 86.9959 1.0767 86.9959 1.29545C86.9959 1.5142 86.9131 1.70147 86.7473 1.85724C86.5849 2.01302 86.3894 2.09091 86.1607 2.09091ZM88.8864 13.8636V3.36364H90.0199V4.5767H90.1591C90.2453 4.44413 90.3646 4.27509 90.517 4.0696C90.6728 3.8608 90.8949 3.67519 91.1832 3.51278C91.4749 3.34706 91.8693 3.2642 92.3665 3.2642C93.0095 3.2642 93.5762 3.42495 94.0668 3.74645C94.5573 4.06794 94.9401 4.52367 95.2152 5.11364C95.4903 5.7036 95.6278 6.39962 95.6278 7.2017C95.6278 8.01042 95.4903 8.71141 95.2152 9.30469C94.9401 9.89465 94.5589 10.352 94.0717 10.6768C93.5845 10.9983 93.0227 11.1591 92.3864 11.1591C91.8958 11.1591 91.5031 11.0779 91.2081 10.9155C90.9131 10.7498 90.6861 10.5625 90.527 10.3537C90.3679 10.1416 90.2453 9.96591 90.1591 9.8267H90.0597V13.8636H88.8864ZM90.0398 7.18182C90.0398 7.75852 90.1243 8.26728 90.2933 8.7081C90.4624 9.1456 90.7093 9.48864 91.0341 9.73722C91.3589 9.98248 91.7566 10.1051 92.2273 10.1051C92.7178 10.1051 93.1271 9.97585 93.4553 9.71733C93.7867 9.45549 94.0353 9.10417 94.201 8.66335C94.37 8.21922 94.4545 7.72538 94.4545 7.18182C94.4545 6.64489 94.3717 6.16098 94.206 5.73011C94.0436 5.29593 93.7966 4.95289 93.4652 4.70099C93.1371 4.44579 92.7244 4.31818 92.2273 4.31818C91.75 4.31818 91.349 4.43916 91.0241 4.68111C90.6993 4.91974 90.4541 5.2545 90.2884 5.68537C90.1226 6.11293 90.0398 6.61174 90.0398 7.18182ZM102.747 0.818182V11H101.514V0.818182H102.747ZM106.233 6.40625V11H105.06V3.36364H106.194V4.55682H106.293C106.472 4.16903 106.744 3.85748 107.108 3.62216C107.473 3.38352 107.944 3.2642 108.52 3.2642C109.037 3.2642 109.49 3.37027 109.878 3.58239C110.265 3.79119 110.567 4.10938 110.782 4.53693C110.998 4.96117 111.106 5.49811 111.106 6.14773V11H109.932V6.22727C109.932 5.62737 109.777 5.16004 109.465 4.82528C109.153 4.48722 108.726 4.31818 108.182 4.31818C107.808 4.31818 107.473 4.39938 107.178 4.56179C106.886 4.72419 106.656 4.96117 106.487 5.27273C106.318 5.58428 106.233 5.96212 106.233 6.40625ZM116.352 11.1591C115.636 11.1591 115.02 10.9901 114.502 10.652C113.985 10.3139 113.588 9.84825 113.309 9.25497C113.031 8.66169 112.892 7.9839 112.892 7.22159C112.892 6.44602 113.034 5.7616 113.319 5.16832C113.608 4.57173 114.009 4.10606 114.522 3.77131C115.039 3.43324 115.643 3.2642 116.332 3.2642C116.869 3.2642 117.353 3.36364 117.784 3.5625C118.215 3.76136 118.568 4.03977 118.843 4.39773C119.118 4.75568 119.288 5.1733 119.355 5.65057H118.181C118.092 5.30256 117.893 4.99432 117.585 4.72585C117.28 4.45407 116.869 4.31818 116.352 4.31818C115.895 4.31818 115.493 4.4375 115.149 4.67614C114.807 4.91146 114.541 5.24455 114.348 5.67543C114.159 6.10298 114.065 6.60511 114.065 7.18182C114.065 7.77178 114.158 8.28551 114.343 8.72301C114.532 9.16051 114.797 9.50024 115.139 9.74219C115.484 9.98414 115.888 10.1051 116.352 10.1051C116.657 10.1051 116.934 10.0521 117.182 9.94602C117.431 9.83996 117.641 9.6875 117.814 9.48864C117.986 9.28977 118.109 9.05114 118.181 8.77273H119.355C119.288 9.22348 119.124 9.6295 118.863 9.99077C118.604 10.3487 118.261 10.6338 117.833 10.8459C117.409 11.0547 116.915 11.1591 116.352 11.1591Z" fill="#1C1E22"/>
</svg>
