<svg width="120" height="14" viewBox="0 0 120 14" fill="none" xmlns="http://www.w3.org/2000/svg">
<path d="M2.5 5.90909C2.5 5.36553 2.63258 4.87003 2.89773 4.42259C3.16288 3.97514 3.51918 3.61884 3.96662 3.35369C4.41406 3.08854 4.90956 2.95597 5.45312 2.95597C5.92377 2.95597 6.35795 3.05705 6.75568 3.25923C7.15672 3.46141 7.48816 3.73816 7.75 4.08949C8.01184 4.4375 8.17424 4.83191 8.23722 5.27273H7.03409C6.9678 4.93134 6.78385 4.65294 6.48224 4.4375C6.18063 4.21875 5.83759 4.10938 5.45312 4.10938C5.12169 4.10938 4.82008 4.19058 4.5483 4.35298C4.27652 4.51539 4.05942 4.73248 3.89702 5.00426C3.73461 5.27604 3.65341 5.57765 3.65341 5.90909C3.65341 6.24053 3.73461 6.54214 3.89702 6.81392C4.05942 7.0857 4.27652 7.30279 4.5483 7.4652C4.82008 7.6276 5.12169 7.70881 5.45312 7.70881C5.83759 7.70881 6.16241 7.60109 6.42756 7.38565C6.69602 7.1669 6.86506 6.88684 6.93466 6.54545H8.13778C8.07481 6.98627 7.92069 7.38234 7.67543 7.73366C7.43016 8.08168 7.11529 8.35677 6.73082 8.55895C6.34967 8.76113 5.92377 8.86222 5.45312 8.86222C4.90956 8.86222 4.41406 8.72964 3.96662 8.46449C3.51918 8.19934 3.16288 7.84304 2.89773 7.3956C2.63258 6.94815 2.5 6.45265 2.5 5.90909ZM5.40341 11.1591C4.68087 11.1591 4.00142 11.0232 3.36506 10.7514C2.73201 10.4796 2.17353 10.1035 1.68963 9.62287C1.20904 9.13897 0.831203 8.58049 0.556108 7.94744C0.284328 7.31439 0.150095 6.63494 0.153409 5.90909C0.156723 5.18324 0.294271 4.50379 0.566051 3.87074C0.841146 3.23769 1.21899 2.68087 1.69957 2.20028C2.18016 1.71638 2.73698 1.33854 3.37003 1.06676C4.00308 0.794981 4.68087 0.659091 5.40341 0.659091C6.12926 0.659091 6.80871 0.794981 7.44176 1.06676C8.07813 1.33854 8.63494 1.71638 9.11222 2.20028C9.5928 2.68087 9.96899 3.23769 10.2408 3.87074C10.5125 4.50379 10.6501 5.18324 10.6534 5.90909C10.6567 6.63494 10.5225 7.31439 10.2507 7.94744C9.97893 8.58049 9.60275 9.13897 9.12216 9.62287C8.64157 10.1035 8.0831 10.4796 7.44673 10.7514C6.81037 11.0232 6.12926 11.1591 5.40341 11.1591ZM5.40341 10.0057C5.97017 10.0057 6.50213 9.89962 6.99929 9.6875C7.49645 9.47538 7.93229 9.18205 8.30682 8.80753C8.68134 8.433 8.97467 7.99882 9.18679 7.50497C9.39891 7.00781 9.50331 6.47751 9.5 5.91406C9.49669 5.3473 9.38897 4.81534 9.17685 4.31818C8.96473 3.82102 8.6714 3.38518 8.29688 3.01065C7.92235 2.63613 7.48816 2.3428 6.99432 2.13068C6.50047 1.91856 5.97017 1.8125 5.40341 1.8125C4.83996 1.8125 4.31132 1.91856 3.81747 2.13068C3.32363 2.3428 2.88944 2.63778 2.51491 3.01562C2.14039 3.39015 1.84541 3.82599 1.62997 4.32315C1.41785 4.817 1.31013 5.3473 1.30682 5.91406C1.3035 6.47419 1.40791 7.00284 1.62003 7.5C1.83215 7.99384 2.12547 8.42803 2.5 8.80256C2.87784 9.17708 3.31368 9.47206 3.80753 9.6875C4.30469 9.89962 4.83665 10.0057 5.40341 10.0057ZM16.802 11V10.1051L20.1628 6.42614C20.5572 5.99526 20.882 5.62074 21.1373 5.30256C21.3925 4.98106 21.5814 4.67945 21.704 4.39773C21.83 4.11269 21.8929 3.81439 21.8929 3.50284C21.8929 3.14489 21.8068 2.83499 21.6344 2.57315C21.4654 2.31132 21.2334 2.10914 20.9384 1.96662C20.6434 1.8241 20.312 1.75284 19.9441 1.75284C19.553 1.75284 19.2116 1.83404 18.9199 1.99645C18.6316 2.15554 18.4078 2.37926 18.2488 2.66761C18.093 2.95597 18.0151 3.29403 18.0151 3.68182H16.8418C16.8418 3.08523 16.9793 2.56155 17.2544 2.1108C17.5295 1.66004 17.9041 1.30871 18.378 1.05682C18.8553 0.804924 19.3906 0.678977 19.9838 0.678977C20.5804 0.678977 21.1091 0.804924 21.5698 1.05682C22.0305 1.30871 22.3917 1.64844 22.6536 2.07599C22.9154 2.50355 23.0463 2.97917 23.0463 3.50284C23.0463 3.87737 22.9784 4.24361 22.8425 4.60156C22.7099 4.9562 22.4779 5.35227 22.1465 5.78977C21.8184 6.22396 21.3626 6.75426 20.7793 7.38068L18.4924 9.8267V9.90625H23.2253V11H16.802ZM28.5996 11.1392C27.8506 11.1392 27.2125 10.9354 26.6855 10.5277C26.1586 10.1167 25.7559 9.52178 25.4775 8.7429C25.199 7.9607 25.0598 7.0161 25.0598 5.90909C25.0598 4.80871 25.199 3.86908 25.4775 3.0902C25.7592 2.308 26.1635 1.71141 26.6905 1.30043C27.2208 0.886126 27.8572 0.678977 28.5996 0.678977C29.342 0.678977 29.9767 0.886126 30.5037 1.30043C31.034 1.71141 31.4384 2.308 31.7168 3.0902C31.9985 3.86908 32.1394 4.80871 32.1394 5.90909C32.1394 7.0161 32.0002 7.9607 31.7218 8.7429C31.4434 9.52178 31.0407 10.1167 30.5137 10.5277C29.9867 10.9354 29.3487 11.1392 28.5996 11.1392ZM28.5996 10.0455C29.342 10.0455 29.9187 9.6875 30.3297 8.97159C30.7407 8.25568 30.9462 7.23485 30.9462 5.90909C30.9462 5.02746 30.8517 4.27675 30.6628 3.65696C30.4772 3.03717 30.2087 2.56487 29.8574 2.24006C29.5094 1.91525 29.0901 1.75284 28.5996 1.75284C27.8638 1.75284 27.2888 2.11577 26.8745 2.84162C26.4602 3.56416 26.253 4.58665 26.253 5.90909C26.253 6.79072 26.3458 7.53977 26.5314 8.15625C26.717 8.77273 26.9838 9.24171 27.3319 9.56321C27.6832 9.88471 28.1058 10.0455 28.5996 10.0455ZM34.0286 11V10.1051L37.3894 6.42614C37.7838 5.99526 38.1086 5.62074 38.3638 5.30256C38.619 4.98106 38.8079 4.67945 38.9306 4.39773C39.0565 4.11269 39.1195 3.81439 39.1195 3.50284C39.1195 3.14489 39.0333 2.83499 38.861 2.57315C38.6919 2.31132 38.4599 2.10914 38.165 1.96662C37.87 1.8241 37.5385 1.75284 37.1706 1.75284C36.7795 1.75284 36.4382 1.83404 36.1465 1.99645C35.8581 2.15554 35.6344 2.37926 35.4753 2.66761C35.3195 2.95597 35.2417 3.29403 35.2417 3.68182H34.0684C34.0684 3.08523 34.2059 2.56155 34.481 2.1108C34.7561 1.66004 35.1306 1.30871 35.6046 1.05682C36.0819 0.804924 36.6171 0.678977 37.2104 0.678977C37.807 0.678977 38.3356 0.804924 38.7963 1.05682C39.257 1.30871 39.6183 1.64844 39.8801 2.07599C40.142 2.50355 40.2729 2.97917 40.2729 3.50284C40.2729 3.87737 40.205 4.24361 40.0691 4.60156C39.9365 4.9562 39.7045 5.35227 39.373 5.78977C39.0449 6.22396 38.5892 6.75426 38.0059 7.38068L35.7189 9.8267V9.90625H40.4519V11H34.0286ZM45.687 11.1392C45.1036 11.1392 44.5783 11.0232 44.111 10.7912C43.6436 10.5592 43.2691 10.241 42.9874 9.83665C42.7057 9.43229 42.5516 8.97159 42.525 8.45455H43.7182C43.7646 8.91525 43.9734 9.2964 44.3446 9.59801C44.7192 9.89631 45.1666 10.0455 45.687 10.0455C46.1046 10.0455 46.4758 9.94768 46.8006 9.75213C47.1287 9.55658 47.3856 9.28812 47.5712 8.94673C47.7601 8.60204 47.8546 8.21259 47.8546 7.77841C47.8546 7.33428 47.7568 6.93821 47.5613 6.5902C47.369 6.23887 47.1039 5.96212 46.7658 5.75994C46.4277 5.55776 46.0416 5.45502 45.6074 5.4517C45.2959 5.44839 44.976 5.49645 44.6479 5.59588C44.3198 5.692 44.0497 5.81629 43.8375 5.96875L42.6841 5.82955L43.3006 0.818182H48.5904V1.91193H44.3347L43.9767 4.91477H44.0364C44.2452 4.74905 44.507 4.61151 44.8219 4.50213C45.1368 4.39276 45.4649 4.33807 45.8063 4.33807C46.4294 4.33807 46.9846 4.48722 47.4718 4.78551C47.9623 5.08049 48.3468 5.48485 48.6252 5.99858C48.9069 6.51231 49.0478 7.09896 49.0478 7.75852C49.0478 8.40814 48.9019 8.98816 48.6103 9.49858C48.3219 10.0057 47.9242 10.4067 47.4171 10.7017C46.91 10.9934 46.3333 11.1392 45.687 11.1392ZM54.5824 1.91193V0.818182H62.2188V1.91193H59.017V11H57.7841V1.91193H54.5824ZM63.1696 11V3.36364H64.3031V4.51705H64.3826C64.5218 4.1392 64.7737 3.83262 65.1383 3.5973C65.5029 3.36198 65.9139 3.24432 66.3713 3.24432C66.4574 3.24432 66.5652 3.24597 66.6944 3.24929C66.8237 3.2526 66.9215 3.25758 66.9877 3.2642V4.45739C66.948 4.44744 66.8568 4.43253 66.7143 4.41264C66.5751 4.38944 66.4276 4.37784 66.2718 4.37784C65.9006 4.37784 65.5692 4.45573 65.2775 4.61151C64.9892 4.76397 64.7605 4.97609 64.5914 5.24787C64.4257 5.51634 64.3429 5.82292 64.3429 6.16761V11H63.1696ZM68.3786 11V3.36364H69.5518V11H68.3786ZM68.9751 2.09091C68.7464 2.09091 68.5492 2.01302 68.3835 1.85724C68.2211 1.70147 68.1399 1.5142 68.1399 1.29545C68.1399 1.0767 68.2211 0.889441 68.3835 0.733664C68.5492 0.577888 68.7464 0.5 68.9751 0.5C69.2038 0.5 69.3994 0.577888 69.5618 0.733664C69.7275 0.889441 69.8104 1.0767 69.8104 1.29545C69.8104 1.5142 69.7275 1.70147 69.5618 1.85724C69.3994 2.01302 69.2038 2.09091 68.9751 2.09091ZM71.7008 13.8636V3.36364H72.8343V4.5767H72.9735C73.0597 4.44413 73.179 4.27509 73.3315 4.0696C73.4873 3.8608 73.7093 3.67519 73.9977 3.51278C74.2894 3.34706 74.6838 3.2642 75.1809 3.2642C75.8239 3.2642 76.3907 3.42495 76.8812 3.74645C77.3717 4.06794 77.7546 4.52367 78.0297 5.11364C78.3047 5.7036 78.4423 6.39962 78.4423 7.2017C78.4423 8.01042 78.3047 8.71141 78.0297 9.30469C77.7546 9.89465 77.3734 10.352 76.8862 10.6768C76.399 10.9983 75.8372 11.1591 75.2008 11.1591C74.7103 11.1591 74.3175 11.0779 74.0225 10.9155C73.7276 10.7498 73.5005 10.5625 73.3414 10.3537C73.1824 10.1416 73.0597 9.96591 72.9735 9.8267H72.8741V13.8636H71.7008ZM72.8542 7.18182C72.8542 7.75852 72.9387 8.26728 73.1078 8.7081C73.2768 9.1456 73.5237 9.48864 73.8485 9.73722C74.1734 9.98248 74.5711 10.1051 75.0417 10.1051C75.5323 10.1051 75.9416 9.97585 76.2697 9.71733C76.6011 9.45549 76.8497 9.10417 77.0154 8.66335C77.1845 8.21922 77.269 7.72538 77.269 7.18182C77.269 6.64489 77.1861 6.16098 77.0204 5.73011C76.858 5.29593 76.6111 4.95289 76.2797 4.70099C75.9515 4.44579 75.5389 4.31818 75.0417 4.31818C74.5645 4.31818 74.1634 4.43916 73.8386 4.68111C73.5138 4.91974 73.2685 5.2545 73.1028 5.68537C72.9371 6.11293 72.8542 6.61174 72.8542 7.18182ZM83.5531 3.36364V4.35795H79.5957V3.36364H83.5531ZM80.7491 1.53409H81.9224V8.8125C81.9224 9.14394 81.9705 9.39252 82.0666 9.55824C82.166 9.72064 82.292 9.83002 82.4444 9.88636C82.6002 9.93939 82.7643 9.96591 82.9366 9.96591C83.0659 9.96591 83.1719 9.95928 83.2548 9.94602C83.3377 9.92945 83.4039 9.91619 83.4537 9.90625L83.6923 10.9602C83.6127 10.9901 83.5017 11.0199 83.3592 11.0497C83.2167 11.0829 83.036 11.0994 82.8173 11.0994C82.4859 11.0994 82.161 11.0282 81.8429 10.8857C81.528 10.7431 81.2662 10.526 81.0574 10.2344C80.8519 9.94271 80.7491 9.57481 80.7491 9.13068V1.53409ZM85.318 11V3.36364H86.4913V11H85.318ZM85.9146 2.09091C85.6859 2.09091 85.4887 2.01302 85.323 1.85724C85.1606 1.70147 85.0794 1.5142 85.0794 1.29545C85.0794 1.0767 85.1606 0.889441 85.323 0.733664C85.4887 0.577888 85.6859 0.5 85.9146 0.5C86.1433 0.5 86.3388 0.577888 86.5012 0.733664C86.667 0.889441 86.7498 1.0767 86.7498 1.29545C86.7498 1.5142 86.667 1.70147 86.5012 1.85724C86.3388 2.01302 86.1433 2.09091 85.9146 2.09091ZM88.6403 13.8636V3.36364H89.7738V4.5767H89.913C89.9992 4.44413 90.1185 4.27509 90.271 4.0696C90.4267 3.8608 90.6488 3.67519 90.9371 3.51278C91.2288 3.34706 91.6232 3.2642 92.1204 3.2642C92.7634 3.2642 93.3301 3.42495 93.8207 3.74645C94.3112 4.06794 94.694 4.52367 94.9691 5.11364C95.2442 5.7036 95.3817 6.39962 95.3817 7.2017C95.3817 8.01042 95.2442 8.71141 94.9691 9.30469C94.694 9.89465 94.3129 10.352 93.8256 10.6768C93.3384 10.9983 92.7766 11.1591 92.1403 11.1591C91.6497 11.1591 91.257 11.0779 90.962 10.9155C90.667 10.7498 90.44 10.5625 90.2809 10.3537C90.1218 10.1416 89.9992 9.96591 89.913 9.8267H89.8136V13.8636H88.6403ZM89.7937 7.18182C89.7937 7.75852 89.8782 8.26728 90.0472 8.7081C90.2163 9.1456 90.4632 9.48864 90.788 9.73722C91.1128 9.98248 91.5105 10.1051 91.9812 10.1051C92.4717 10.1051 92.881 9.97585 93.2092 9.71733C93.5406 9.45549 93.7892 9.10417 93.9549 8.66335C94.1239 8.21922 94.2085 7.72538 94.2085 7.18182C94.2085 6.64489 94.1256 6.16098 93.9599 5.73011C93.7975 5.29593 93.5505 4.95289 93.2191 4.70099C92.891 4.44579 92.4783 4.31818 91.9812 4.31818C91.5039 4.31818 91.1029 4.43916 90.7781 4.68111C90.4532 4.91974 90.208 5.2545 90.0423 5.68537C89.8765 6.11293 89.7937 6.61174 89.7937 7.18182ZM102.501 0.818182V11H101.268V0.818182H102.501ZM105.987 6.40625V11H104.814V3.36364H105.948V4.55682H106.047C106.226 4.16903 106.498 3.85748 106.862 3.62216C107.227 3.38352 107.698 3.2642 108.274 3.2642C108.791 3.2642 109.244 3.37027 109.632 3.58239C110.019 3.79119 110.321 4.10938 110.536 4.53693C110.752 4.96117 110.86 5.49811 110.86 6.14773V11H109.686V6.22727C109.686 5.62737 109.53 5.16004 109.219 4.82528C108.907 4.48722 108.48 4.31818 107.936 4.31818C107.562 4.31818 107.227 4.39938 106.932 4.56179C106.64 4.72419 106.41 4.96117 106.241 5.27273C106.072 5.58428 105.987 5.96212 105.987 6.40625ZM116.106 11.1591C115.39 11.1591 114.773 10.9901 114.256 10.652C113.739 10.3139 113.342 9.84825 113.063 9.25497C112.785 8.66169 112.646 7.9839 112.646 7.22159C112.646 6.44602 112.788 5.7616 113.073 5.16832C113.362 4.57173 113.763 4.10606 114.276 3.77131C114.793 3.43324 115.397 3.2642 116.086 3.2642C116.623 3.2642 117.107 3.36364 117.538 3.5625C117.969 3.76136 118.321 4.03977 118.597 4.39773C118.872 4.75568 119.042 5.1733 119.109 5.65057H117.935C117.846 5.30256 117.647 4.99432 117.339 4.72585C117.034 4.45407 116.623 4.31818 116.106 4.31818C115.648 4.31818 115.247 4.4375 114.903 4.67614C114.561 4.91146 114.295 5.24455 114.102 5.67543C113.913 6.10298 113.819 6.60511 113.819 7.18182C113.819 7.77178 113.912 8.28551 114.097 8.72301C114.286 9.16051 114.551 9.50024 114.893 9.74219C115.237 9.98414 115.642 10.1051 116.106 10.1051C116.411 10.1051 116.688 10.0521 116.936 9.94602C117.185 9.83996 117.395 9.6875 117.567 9.48864C117.74 9.28977 117.862 9.05114 117.935 8.77273H119.109C119.042 9.22348 118.878 9.6295 118.616 9.99077C118.358 10.3487 118.015 10.6338 117.587 10.8459C117.163 11.0547 116.669 11.1591 116.106 11.1591Z" fill="#1C1E22"/>
</svg>
