<svg width="36" height="15" viewBox="0 0 36 15" fill="none" xmlns="http://www.w3.org/2000/svg">
<path d="M0.3125 0.671875C0.614583 0.723958 0.880208 0.760417 1.10938 0.78125C1.34896 0.802083 1.54688 0.817708 1.70312 0.828125C1.89062 0.838542 2.05208 0.84375 2.1875 0.84375C2.32292 0.84375 2.51562 0.833333 2.76562 0.8125C2.97396 0.791667 3.24479 0.765625 3.57812 0.734375C3.92188 0.703125 4.34375 0.651042 4.84375 0.578125C4.69792 0.619792 4.5625 0.739583 4.4375 0.9375C4.32292 1.125 4.21875 1.32812 4.125 1.54688C4.01042 1.80729 3.91146 2.09375 3.82812 2.40625C3.75521 2.6875 3.66146 3.07292 3.54688 3.5625C3.44271 4.05208 3.33854 4.58333 3.23438 5.15625C3.14062 5.72917 3.06771 6.3125 3.01562 6.90625C2.96354 7.48958 2.95312 8.02604 2.98438 8.51562C3.02604 9.00521 3.125 9.41146 3.28125 9.73438C3.4375 10.0469 3.67708 10.2135 4 10.2344C4.48958 10.276 4.89583 10.2812 5.21875 10.25C5.55208 10.2083 5.82292 10.151 6.03125 10.0781C6.23958 10.0052 6.40104 9.92188 6.51562 9.82812C6.63021 9.72396 6.71875 9.625 6.78125 9.53125C6.94792 9.29167 7.11979 8.98438 7.29688 8.60938C7.47396 8.23438 7.63021 7.875 7.76562 7.53125C7.91146 7.1875 8.03125 6.89583 8.125 6.65625C8.21875 6.41667 8.26562 6.30208 8.26562 6.3125C8.26562 6.33333 8.26042 6.45312 8.25 6.67188C8.25 6.88021 8.24479 7.13542 8.23438 7.4375C8.23438 7.72917 8.22917 8.03646 8.21875 8.35938C8.21875 8.68229 8.21354 8.95833 8.20312 9.1875C8.19271 9.375 8.18229 9.58333 8.17188 9.8125C8.16146 10.0104 8.15104 10.2448 8.14062 10.5156C8.14062 10.7865 8.13021 11.0833 8.10938 11.4062C7.67188 11.375 7.25521 11.3542 6.85938 11.3438C6.46354 11.3333 6.11458 11.3281 5.8125 11.3281C5.45833 11.3281 5.13021 11.3333 4.82812 11.3438C4.50521 11.3542 4.13021 11.3698 3.70312 11.3906C3.33854 11.4115 2.88542 11.4375 2.34375 11.4688C1.80208 11.4896 1.17708 11.5208 0.46875 11.5625C0.552083 11.4167 0.619792 11.2812 0.671875 11.1562C0.734375 11.0312 0.78125 10.9271 0.8125 10.8438C0.854167 10.7396 0.880208 10.651 0.890625 10.5781C0.953125 10.2448 1.00521 9.82292 1.04688 9.3125C1.08854 8.79167 1.11979 8.23958 1.14062 7.65625C1.17188 7.07292 1.1875 6.47917 1.1875 5.875C1.19792 5.26042 1.19792 4.69271 1.1875 4.17188C1.17708 3.65104 1.15625 3.19792 1.125 2.8125C1.10417 2.42708 1.07292 2.16146 1.03125 2.01562C0.979167 1.84896 0.916667 1.68229 0.84375 1.51562C0.78125 1.36979 0.703125 1.22396 0.609375 1.07812C0.526042 0.921875 0.427083 0.786458 0.3125 0.671875ZM13.3281 5C13.599 5 13.8802 5.05208 14.1719 5.15625C14.4635 5.25 14.7448 5.375 15.0156 5.53125C15.2865 5.67708 15.5312 5.83854 15.75 6.01562C15.9792 6.18229 16.1667 6.34375 16.3125 6.5C16.5729 6.78125 16.75 7.16146 16.8438 7.64062C16.9479 8.10938 16.9688 8.59375 16.9062 9.09375C16.8438 9.58333 16.6979 10.0469 16.4688 10.4844C16.2396 10.9219 15.9219 11.2448 15.5156 11.4531C15.224 11.599 14.9375 11.7135 14.6562 11.7969C14.375 11.8802 14.1042 11.9427 13.8438 11.9844C13.5833 12.026 13.3385 12.0469 13.1094 12.0469C12.8802 12.0469 12.6823 12.0417 12.5156 12.0312C12.2031 12.0104 11.875 11.901 11.5312 11.7031C11.1979 11.5052 10.8802 11.2604 10.5781 10.9688C10.2865 10.6771 10.0365 10.3594 9.82812 10.0156C9.61979 9.66146 9.49479 9.32812 9.45312 9.01562C9.39062 8.58854 9.38021 8.14062 9.42188 7.67188C9.46354 7.20312 9.61458 6.77083 9.875 6.375C10.1458 5.97917 10.5521 5.65104 11.0938 5.39062C11.6458 5.13021 12.3906 5 13.3281 5ZM12.8125 11.0625C12.9271 11.0833 13.0833 11.0573 13.2812 10.9844C13.4792 10.901 13.6719 10.7708 13.8594 10.5938C14.0573 10.4167 14.2292 10.1927 14.375 9.92188C14.5312 9.64062 14.625 9.30208 14.6562 8.90625C14.6875 8.52083 14.6875 8.16667 14.6562 7.84375C14.6354 7.52083 14.5885 7.23958 14.5156 7C14.4427 6.75 14.3594 6.54688 14.2656 6.39062C14.1719 6.23438 14.0729 6.125 13.9688 6.0625C13.7917 5.96875 13.5781 5.89583 13.3281 5.84375C13.0781 5.78125 12.8646 5.79167 12.6875 5.875C12.6042 5.91667 12.5 6.00521 12.375 6.14062C12.25 6.27604 12.125 6.44792 12 6.65625C11.875 6.85417 11.7604 7.08333 11.6562 7.34375C11.5625 7.60417 11.4948 7.875 11.4531 8.15625C11.4115 8.4375 11.401 8.73958 11.4219 9.0625C11.4531 9.38542 11.5208 9.69271 11.625 9.98438C11.7292 10.2656 11.875 10.5104 12.0625 10.7188C12.2604 10.9167 12.5104 11.0312 12.8125 11.0625ZM25.0312 5.375C25 5.16667 24.974 4.99479 24.9531 4.85938C24.9323 4.71354 24.9115 4.59896 24.8906 4.51562C24.8698 4.41146 24.8542 4.33333 24.8438 4.28125C24.8229 4.22917 24.7969 4.17188 24.7656 4.10938C24.7448 4.05729 24.7083 3.99479 24.6562 3.92188C24.6146 3.84896 24.5625 3.76562 24.5 3.67188C24.6354 3.71354 24.7708 3.73958 24.9062 3.75C25.0521 3.76042 25.1875 3.77083 25.3125 3.78125C25.4479 3.79167 25.5885 3.79167 25.7344 3.78125C25.8802 3.78125 26.0469 3.77604 26.2344 3.76562C26.401 3.75521 26.599 3.75 26.8281 3.75C27.0677 3.73958 27.3385 3.72396 27.6406 3.70312C27.4635 3.74479 27.3125 3.81771 27.1875 3.92188C27.0729 4.01562 26.974 4.11979 26.8906 4.23438C26.7969 4.35938 26.7188 4.49479 26.6562 4.64062C26.6042 4.77604 26.5729 5.03646 26.5625 5.42188C26.5521 5.79688 26.5521 6.24479 26.5625 6.76562C26.5729 7.27604 26.5833 7.82812 26.5938 8.42188C26.6146 9.01562 26.625 9.58333 26.625 10.125C26.6354 10.6667 26.6354 11.1615 26.625 11.6094C26.6146 12.0469 26.5885 12.3698 26.5469 12.5781C26.401 13.2344 26.1302 13.7656 25.7344 14.1719C25.3385 14.5885 24.8177 14.8125 24.1719 14.8438C23.3906 14.875 22.7708 14.8021 22.3125 14.625C21.8646 14.4479 21.5156 14.2292 21.2656 13.9688C21.0156 13.7188 20.8281 13.4635 20.7031 13.2031C20.5781 12.9427 20.4479 12.7448 20.3125 12.6094C20.1875 12.4948 20.0625 12.3854 19.9375 12.2812C19.8229 12.1979 19.7031 12.1146 19.5781 12.0312C19.4635 11.9479 19.349 11.8958 19.2344 11.875C19.5365 11.8854 19.8073 11.8906 20.0469 11.8906C20.2865 11.8906 20.4896 11.8906 20.6562 11.8906C20.8438 11.8906 21.0104 11.8854 21.1562 11.875H21.6562H23.0781C22.8698 11.9375 22.7135 12.0052 22.6094 12.0781C22.5052 12.1615 22.4323 12.2448 22.3906 12.3281C22.349 12.4219 22.3281 12.5156 22.3281 12.6094C22.3698 12.8594 22.5052 13.0417 22.7344 13.1562C22.9635 13.2708 23.276 13.3385 23.6719 13.3594C24.0573 13.3802 24.3229 13.3698 24.4688 13.3281C24.6146 13.2969 24.7292 13.2344 24.8125 13.1406C24.9792 12.8906 25.1198 12.5677 25.2344 12.1719C25.3177 11.8385 25.375 11.4062 25.4062 10.875C25.4479 10.3333 25.401 9.67188 25.2656 8.89062C24.9323 9.34896 24.5469 9.69271 24.1094 9.92188C23.6719 10.151 23.2552 10.3177 22.8594 10.4219C22.3906 10.5365 21.9167 10.5938 21.4375 10.5938C20.1771 10.5417 19.2344 10.25 18.6094 9.71875C17.9844 9.1875 17.6979 8.47396 17.75 7.57812C17.7812 7.13021 17.9167 6.68229 18.1562 6.23438C18.4062 5.78646 18.7292 5.38542 19.125 5.03125C19.5312 4.67708 19.9948 4.39583 20.5156 4.1875C21.0365 3.97917 21.5781 3.89062 22.1406 3.92188C22.5677 3.96354 22.9688 4.04167 23.3438 4.15625C23.6667 4.26042 23.9844 4.40625 24.2969 4.59375C24.6198 4.78125 24.8646 5.04167 25.0312 5.375ZM20.0625 6.9375C20 7.34375 20.026 7.72396 20.1406 8.07812C20.2656 8.43229 20.4375 8.73958 20.6562 9C20.875 9.25 21.1198 9.44792 21.3906 9.59375C21.6615 9.72917 21.9167 9.79167 22.1562 9.78125C22.6562 9.77083 23.0885 9.54688 23.4531 9.10938C23.8177 8.66146 24.0365 7.99479 24.1094 7.10938C24.1406 6.67188 24.0833 6.29688 23.9375 5.98438C23.8021 5.66146 23.6302 5.40104 23.4219 5.20312C23.2135 5.00521 22.9948 4.86458 22.7656 4.78125C22.5365 4.69792 22.3542 4.66146 22.2188 4.67188C22.0312 4.69271 21.8229 4.75 21.5938 4.84375C21.375 4.92708 21.1615 5.05729 20.9531 5.23438C20.7448 5.40104 20.5573 5.625 20.3906 5.90625C20.2344 6.1875 20.125 6.53125 20.0625 6.9375ZM31.9688 5C32.2396 5 32.5208 5.05208 32.8125 5.15625C33.1042 5.25 33.3854 5.375 33.6562 5.53125C33.9271 5.67708 34.1719 5.83854 34.3906 6.01562C34.6198 6.18229 34.8073 6.34375 34.9531 6.5C35.2135 6.78125 35.3906 7.16146 35.4844 7.64062C35.5885 8.10938 35.6094 8.59375 35.5469 9.09375C35.4844 9.58333 35.3385 10.0469 35.1094 10.4844C34.8802 10.9219 34.5625 11.2448 34.1562 11.4531C33.8646 11.599 33.5781 11.7135 33.2969 11.7969C33.0156 11.8802 32.7448 11.9427 32.4844 11.9844C32.224 12.026 31.9792 12.0469 31.75 12.0469C31.5208 12.0469 31.3229 12.0417 31.1562 12.0312C30.8438 12.0104 30.5156 11.901 30.1719 11.7031C29.8385 11.5052 29.5208 11.2604 29.2188 10.9688C28.9271 10.6771 28.6771 10.3594 28.4688 10.0156C28.2604 9.66146 28.1354 9.32812 28.0938 9.01562C28.0312 8.58854 28.0208 8.14062 28.0625 7.67188C28.1042 7.20312 28.2552 6.77083 28.5156 6.375C28.7865 5.97917 29.1927 5.65104 29.7344 5.39062C30.2865 5.13021 31.0312 5 31.9688 5ZM31.4531 11.0625C31.5677 11.0833 31.724 11.0573 31.9219 10.9844C32.1198 10.901 32.3125 10.7708 32.5 10.5938C32.6979 10.4167 32.8698 10.1927 33.0156 9.92188C33.1719 9.64062 33.2656 9.30208 33.2969 8.90625C33.3281 8.52083 33.3281 8.16667 33.2969 7.84375C33.276 7.52083 33.2292 7.23958 33.1562 7C33.0833 6.75 33 6.54688 32.9062 6.39062C32.8125 6.23438 32.7135 6.125 32.6094 6.0625C32.4323 5.96875 32.2188 5.89583 31.9688 5.84375C31.7188 5.78125 31.5052 5.79167 31.3281 5.875C31.2448 5.91667 31.1406 6.00521 31.0156 6.14062C30.8906 6.27604 30.7656 6.44792 30.6406 6.65625C30.5156 6.85417 30.401 7.08333 30.2969 7.34375C30.2031 7.60417 30.1354 7.875 30.0938 8.15625C30.0521 8.4375 30.0417 8.73958 30.0625 9.0625C30.0938 9.38542 30.1615 9.69271 30.2656 9.98438C30.3698 10.2656 30.5156 10.5104 30.7031 10.7188C30.901 10.9167 31.151 11.0312 31.4531 11.0625Z" fill="#FF4F18"/>
</svg>
