<svg width="88" height="17" viewBox="0 0 88 17" fill="none" xmlns="http://www.w3.org/2000/svg">
<path d="M3.288 14C2.328 14 1.368 14 0.424 14C0.424 10.272 0.424 6.544 0.424 2.8C2.04 2.8 3.704 2.8 5.352 2.8C10.712 2.816 10.712 11.136 5.352 11.136H3.288V14ZM5.336 8.56C6.904 8.56 7 5.376 5.336 5.36C4.664 5.344 3.944 5.36 3.288 5.36C3.288 6.272 3.288 7.648 3.288 8.56H5.336ZM18.7974 10.032L20.9894 13.584V14H17.7894L15.8694 10.704H14.3814V14C13.4214 14 12.4454 14 11.5174 14C11.5174 10.272 11.5174 6.544 11.5174 2.8C13.1334 2.8 14.7974 2.8 16.4294 2.8C20.8294 2.816 21.6294 8.112 18.7974 10.032ZM16.4294 8.128C17.9814 8.128 18.0614 5.376 16.4294 5.36C15.7574 5.344 15.0534 5.36 14.3814 5.36C14.3814 6.272 14.3814 7.232 14.3814 8.128H16.4294ZM33.5209 8.416C33.5209 16.176 22.0329 16.176 22.0329 8.416C22.0329 0.671999 33.5209 0.671999 33.5209 8.416ZM24.9769 8.416C24.9769 12.48 30.5929 12.48 30.5929 8.416C30.5929 4.384 24.9769 4.384 24.9769 8.416ZM43.498 2.8V10.272C43.498 12.72 41.482 14.128 39.178 14.128C36.874 14.128 34.986 12.72 34.986 10.272V8.816C35.866 8.816 36.794 8.816 37.69 8.816V10.224C37.69 11.104 38.346 11.568 39.178 11.568C40.01 11.568 40.57 11.12 40.57 10.224V5.344H38.938C38.938 4.464 38.938 3.632 38.938 2.8H43.498ZM53.2598 2.8C53.2598 3.632 53.2598 4.496 53.2598 5.36C51.5958 5.36 50.7638 5.36 49.1158 5.36V6.944H52.9237C52.9237 7.792 52.9237 8.64 52.9237 9.488H49.1158C49.1158 10.144 49.1158 10.784 49.1158 11.456C50.7638 11.456 51.7238 11.456 53.4038 11.456C53.4038 12.288 53.4038 13.152 53.4038 14C50.7798 14 48.8598 14 46.2678 14C46.2678 10.256 46.2678 6.512 46.2678 2.8C48.8598 2.8 50.6358 2.8 53.2598 2.8ZM55.1895 8.4C55.2055 4.592 58.0855 2.672 60.9335 2.672C63.2535 2.672 65.7655 3.936 66.1975 6.928C65.2215 6.928 64.3575 6.928 63.3815 6.928C62.9815 5.792 62.1335 5.28 60.9335 5.28C59.2535 5.28 58.1495 6.544 58.1495 8.4C58.1495 10.048 59.2375 11.488 60.9335 11.504C62.1495 11.504 63.1255 10.896 63.4295 9.696C64.3895 9.696 65.2695 9.696 66.2455 9.696C65.8295 12.864 63.3175 14.112 60.9335 14.112C58.0855 14.128 55.2055 12.208 55.1895 8.4ZM70.0876 5.36H67.3356C67.3356 4.496 67.3356 3.648 67.3356 2.8H75.6556C75.6556 3.648 75.6556 4.496 75.6556 5.36H72.9196V14C71.9756 14 71.0316 14 70.0876 14V5.36ZM79.351 2.8L81.975 9.136H82.055L84.615 2.8H87.367V3.232L82.615 14.128H81.399L76.599 3.232V2.8H79.351Z" fill="#FF4F18"/>
</svg>
